<svg width="158" height="152" viewBox="0 0 158 152" fill="none" xmlns="http://www.w3.org/2000/svg">
<path d="M30.5494 111.347L28.2947 114.414L27.8563 110.67L25.1152 109.797L27.6205 108.589L27.3479 106.758L29.0978 107.733L30.6194 105.659L31.3636 108.381L33.681 108.199L32.2552 109.855L33.692 112.311L30.5494 111.347Z" fill="white"/>
<path d="M16.4795 73.0509L17.5479 71.0095L15.33 71.337L14.4458 69.5612L13.3737 71.6135L11.3806 71.2533L12.659 72.8689L11.2627 74.3791L13.6058 74.0298L15.0574 76.3587L15.4627 74.0843L17.279 74.6193L16.4795 73.0509Z" fill="white"/>
<g opacity="0.4">
<path d="M144.846 89.896C145.096 87.6891 144.981 85.4269 144.364 83.3158C143.755 81.2192 142.627 79.262 141.021 77.9436C140.624 77.6126 140.204 77.3222 139.766 77.0695C139.325 76.8227 138.863 76.6281 138.396 76.4713C137.461 76.1577 136.482 76.0474 135.52 76.0909C133.589 76.1926 131.728 76.9156 130.037 77.9552C129.934 78.0191 129.817 78.0888 129.729 78.1498L129.485 78.3298C129.326 78.4605 129.167 78.5825 129.014 78.7248C128.706 78.9977 128.409 79.3055 128.126 79.6482C127.562 80.319 127.03 81.0943 126.556 81.9336C125.589 83.612 124.766 85.5111 123.993 87.4713C122.455 91.4148 121.103 95.6225 119.586 99.8767C119.206 100.942 118.812 102.011 118.401 103.083C117.998 104.157 117.563 105.231 117.11 106.312C116.196 108.472 115.205 110.636 113.858 112.828C113.517 113.377 113.15 113.929 112.726 114.483C112.515 114.759 112.283 115.041 112.039 115.314C111.792 115.581 111.539 115.834 111.277 116.075C110.225 117.042 109.06 117.782 107.899 118.369C105.568 119.548 103.245 120.181 101.008 120.837C98.7643 121.467 96.574 122.074 94.469 122.852C92.3698 123.625 90.3559 124.568 88.536 125.753C86.7102 126.929 85.105 128.381 83.8055 130.045C82.5119 131.718 81.4888 133.585 81.0301 135.467C80.8008 136.405 80.7009 137.334 80.7538 138.211C80.8126 139.085 81.0184 139.898 81.3653 140.598C82.0474 142.003 83.2293 142.941 84.6287 143.392C85.3284 143.624 86.087 143.731 86.869 143.743C87.654 143.743 88.4654 143.647 89.2828 143.45C89.4856 143.4 89.6914 143.342 89.8943 143.281L90.6234 143.063C91.1056 142.912 91.5848 142.756 92.0581 142.581C93.0048 142.236 93.9309 141.85 94.8541 141.411C96.6975 140.54 98.538 139.439 100.578 138.269C102.61 137.096 104.868 135.908 107.273 134.956C109.684 134.021 112.194 133.303 114.702 132.85C115.017 132.787 115.328 132.743 115.643 132.691L116.484 132.557C116.948 132.479 117.419 132.389 117.892 132.29C118.833 132.084 119.771 131.831 120.688 131.535C124.36 130.341 127.668 128.448 130.184 125.779C131.454 124.452 132.572 122.954 133.518 121.275C133.998 120.439 134.436 119.556 134.818 118.633C135.215 117.712 135.55 116.748 135.859 115.758C136.158 114.765 136.42 113.743 136.632 112.694C136.735 112.204 136.843 111.559 136.955 110.978C137.079 110.386 137.202 109.796 137.343 109.213C137.914 106.875 138.64 104.607 139.513 102.426C140.369 100.24 141.365 98.1431 142.362 96.0842C142.865 95.0533 143.364 94.0312 143.823 93.0061C144.276 91.981 144.705 90.9327 144.846 89.9018V89.896ZM145.728 89.9889C145.664 90.6046 145.505 91.1766 145.334 91.7371C145.164 92.2975 144.961 92.8377 144.764 93.3749C144.364 94.4493 143.95 95.5063 143.582 96.575C143.209 97.6407 142.873 98.7151 142.588 99.7983C142.303 100.881 142.086 101.976 141.903 103.068C141.559 105.261 141.442 107.462 141.545 109.637C141.565 110.18 141.606 110.723 141.647 111.26C141.7 111.812 141.756 112.3 141.809 112.938C141.912 114.155 141.956 115.392 141.921 116.641C141.856 119.138 141.474 121.702 140.654 124.211C139.839 126.714 138.578 129.157 136.902 131.308C135.229 133.463 133.183 135.336 130.943 136.861C128.7 138.388 126.268 139.573 123.757 140.435C122.502 140.871 121.223 141.222 119.921 141.501C119.271 141.643 118.612 141.76 117.945 141.855L116.325 142.088C114.308 142.407 112.359 142.834 110.463 143.47C108.555 144.077 106.688 144.907 104.671 145.869C102.663 146.827 100.481 147.93 98.1028 148.845C96.918 149.301 95.695 149.716 94.4513 150.053C93.831 150.221 93.2048 150.372 92.5785 150.509L91.6377 150.701C91.282 150.762 90.9233 150.82 90.5617 150.866C89.1152 151.046 87.6158 151.058 86.1164 150.82C84.6199 150.593 83.1264 150.117 81.7504 149.374C80.3774 148.63 79.1338 147.608 78.1636 146.38C77.1875 145.157 76.4907 143.734 76.1291 142.276C75.7587 140.819 75.7116 139.341 75.8939 137.953C76.0703 136.562 76.4731 135.258 77.0052 134.058C78.0989 131.663 79.6277 129.665 81.333 127.92C82.1856 127.037 83.1117 126.235 84.0672 125.483C85.0315 124.743 86.037 124.063 87.0689 123.448C91.2055 120.979 95.7391 119.565 99.8992 117.776C101.972 116.894 103.968 115.895 105.535 114.66C106.311 114.039 106.967 113.362 107.458 112.648C107.581 112.471 107.693 112.288 107.799 112.105C107.902 111.925 107.999 111.742 108.096 111.542C108.293 111.141 108.478 110.697 108.655 110.235C109.007 109.309 109.316 108.298 109.604 107.267C109.907 106.239 110.172 105.176 110.451 104.108L111.28 100.867C111.559 99.7751 111.844 98.6803 112.15 97.5826C113.382 93.1919 114.811 88.7345 117.004 84.3844C118.116 82.2152 119.412 80.0663 121.132 78.0598C121.57 77.5632 122.023 77.0724 122.52 76.602C123.008 76.1287 123.534 75.6728 124.104 75.2517C124.669 74.8277 125.277 74.4328 125.93 74.0901C126.248 73.913 126.595 73.762 126.936 73.6139L127.462 73.4106C127.632 73.3496 127.779 73.3061 127.938 73.2538C129.191 72.8589 130.493 72.5714 131.825 72.4465C133.157 72.3217 134.518 72.3681 135.841 72.6237C137.164 72.8705 138.437 73.3584 139.575 74.0204C140.142 74.3544 140.674 74.7348 141.159 75.1588C141.65 75.574 142.097 76.0299 142.5 76.512C144.114 78.4518 145.017 80.7488 145.475 83.0428C145.934 85.3485 145.958 87.6862 145.722 89.9802L145.728 89.9889Z" fill="#EAECF0"/>
<path d="M57.1251 33.6414C59.727 33.2755 62.2495 32.4625 64.6721 31.4316C67.1006 30.4094 69.4379 29.1782 71.7958 27.9208C72.9806 27.3022 74.1625 26.6605 75.3855 26.0594C76.6086 25.4496 77.8669 24.8688 79.2134 24.378C80.56 23.8931 81.9947 23.4836 83.5853 23.3181C85.1611 23.1555 86.9369 23.2629 88.6685 23.8844C89.0978 24.0354 89.5123 24.2415 89.9357 24.4303C90.3385 24.6481 90.7354 24.8862 91.1293 25.1272C91.4968 25.3915 91.8643 25.6674 92.2201 25.9519C92.5494 26.251 92.8757 26.5559 93.2021 26.8638C94.3898 28.0573 95.4012 29.4656 96.1979 30.9611C97.0006 32.4596 97.5562 34.0451 97.9443 35.6074C98.3236 37.1755 98.5382 38.7203 98.644 40.2246C98.8528 43.233 98.6881 46.073 98.4853 48.7736L98.1619 52.7432C98.109 53.3908 98.0737 54.0297 98.0296 54.6656L97.9737 55.6123L97.9355 56.5473C97.909 57.7873 97.8943 59.0011 97.9884 60.1801C98.059 61.362 98.2354 62.5206 98.4912 63.5864C98.7616 64.6899 99.1938 65.8427 99.7083 66.9984C100.226 68.1571 100.817 69.3274 101.458 70.4976C102.739 72.8469 104.192 75.1932 105.609 77.6151L106.661 79.4503C107.003 80.0747 107.341 80.7019 107.661 81.3437C108.317 82.6214 108.902 83.9572 109.369 85.3656C109.825 86.774 110.145 88.2811 110.134 89.8318C110.128 91.3795 109.754 92.9418 109.072 94.2979C108.74 94.9862 108.314 95.5989 107.873 96.1942L107.167 97.0363C106.926 97.3035 106.679 97.5445 106.432 97.8C105.427 98.7873 104.342 99.7021 103.16 100.498C101.969 101.273 100.711 101.964 99.382 102.501C99.0468 102.629 98.7205 102.78 98.3794 102.893L97.3563 103.236C96.6654 103.428 95.9686 103.625 95.263 103.765C92.4406 104.36 89.5182 104.488 86.6399 104.238C85.1993 104.119 83.7646 103.927 82.3475 103.646C80.9245 103.384 79.528 103.018 78.1433 102.62C77.4582 102.406 76.7615 102.208 76.0823 101.967L75.0592 101.616L74.0478 101.238C72.7042 100.721 71.3842 100.155 70.0817 99.5453C69.4349 99.2375 68.7911 98.918 68.1472 98.6015C67.5151 98.2705 66.8771 97.9336 66.2509 97.5881C65.6305 97.2338 64.9984 96.894 64.3869 96.5252C63.7783 96.1506 63.158 95.7934 62.5582 95.4043L59.1008 93.1974C58.5392 92.8373 57.9688 92.5004 57.4044 92.1491L56.5547 91.6293L55.6992 91.1269C51.1392 88.4118 46.4528 86.0799 41.6312 83.9485C39.2027 82.8856 36.7537 81.8635 34.1576 80.7077C32.8611 80.1357 31.5351 79.491 30.1621 78.7302C28.8009 77.9606 27.3838 77.0633 26.0432 75.9308C24.6996 74.8099 23.453 73.4654 22.4387 72.0309C21.4068 70.5993 20.6276 69.0922 19.9808 67.617C19.6398 66.8765 19.3811 66.1447 19.1077 65.4071C18.9783 65.0412 18.8666 64.6782 18.746 64.3153C18.6284 63.9523 18.5079 63.5922 18.4079 63.2002L18.1022 62.0473L17.9552 61.4694L17.8405 60.8712C17.6935 60.0727 17.5347 59.2886 17.4789 58.4552C17.4407 58.0457 17.3995 57.6363 17.373 57.2239V55.9666V55.3393C17.3789 55.1302 17.4083 54.9183 17.426 54.7063L17.5553 53.446C17.62 53.0278 17.72 52.6068 17.8023 52.1915L17.9375 51.5701C17.9905 51.3639 18.061 51.1606 18.1228 50.9573C18.2521 50.5508 18.3785 50.1472 18.5167 49.7464C18.6814 49.3544 18.8548 48.9682 19.0283 48.5849C19.7692 47.0777 20.6776 45.6723 21.7801 44.5165L22.18 44.0722C22.3182 43.9328 22.4652 43.7993 22.6063 43.6657C22.8944 43.3985 23.1766 43.1255 23.4677 42.8729C24.0763 42.4025 24.6643 41.903 25.2993 41.5081C26.5371 40.6456 27.8513 39.9981 29.1537 39.3853C30.4738 38.8162 31.7909 38.2993 33.1286 37.8956C35.7952 37.0564 38.4736 36.4582 41.1461 35.9675C41.8164 35.8513 42.4808 35.7177 43.1511 35.619C43.8185 35.5115 44.483 35.3867 45.1504 35.2909C45.8177 35.1863 46.4851 35.0905 47.1496 34.9947L49.1458 34.7072L57.1133 33.6327L57.1251 33.6414ZM57.2721 34.501C54.6319 34.8785 52.0124 35.3547 49.4281 35.9616L48.4608 36.1911L47.4994 36.4437C46.8556 36.6034 46.2235 36.798 45.5914 36.9867C44.3213 37.3526 43.0747 37.7824 41.8428 38.2354C39.382 39.1472 37.0065 40.2449 34.8162 41.5429C33.7107 42.176 32.6817 42.8961 31.6939 43.6308C30.7354 44.3975 29.8093 45.1757 29.0332 46.0382C28.6157 46.4447 28.2864 46.9093 27.9218 47.3362L27.4485 48.0157C27.3721 48.129 27.2897 48.2364 27.2133 48.3497L27.0163 48.701C26.4548 49.6157 26.0814 50.574 25.8109 51.5352C25.755 51.7791 25.6962 52.0202 25.6286 52.2583L25.5169 52.9959C25.4993 53.1178 25.4728 53.2369 25.461 53.3618L25.4463 53.7393C25.4375 53.9919 25.414 54.2358 25.4111 54.4856L25.4375 55.2493C25.4434 55.3771 25.4375 55.499 25.4522 55.6297L25.5022 56.0188L25.5875 56.7942L25.7462 57.5869C25.9403 58.641 26.2754 59.7242 26.6518 60.8103C26.7311 61.0774 26.8487 61.362 26.9605 61.6437C27.0722 61.9224 27.178 62.2099 27.2927 62.4829C27.5367 63.0143 27.7601 63.5661 28.0189 64.0597C28.5245 65.0703 29.0684 65.9879 29.6741 66.7632C30.2827 67.5444 30.9383 68.2123 31.7145 68.8308C33.2492 70.0621 35.3601 71.1394 37.7386 72.2487C38.9205 72.8033 40.1494 73.358 41.4018 73.93C42.6513 74.4934 43.9097 75.1061 45.1709 75.7159C50.2278 78.1842 55.1729 81.0533 59.8446 84.2185L60.7236 84.808L61.591 85.412C62.1672 85.8186 62.7523 86.2135 63.3197 86.6259L66.6449 89.0506C67.7062 89.8172 68.7793 90.5606 69.8612 91.2953L71.4959 92.3669C72.0457 92.7124 72.5955 93.0609 73.1482 93.4006C74.2624 94.0598 75.3767 94.7306 76.5204 95.3259L77.373 95.7847L78.2344 96.2203C78.8077 96.5194 79.3928 96.7721 79.9749 97.0508C82.3152 98.0904 84.7142 98.9819 87.1721 99.5482C88.401 99.8444 89.6387 100.022 90.8794 100.143C92.1231 100.274 93.3638 100.257 94.5927 100.155C97.0564 99.9605 99.4379 99.22 101.575 98.0091C102.634 97.3877 103.63 96.653 104.539 95.8109C104.759 95.596 104.997 95.3869 105.206 95.1662L105.8 94.5041C106.153 94.0366 106.494 93.5633 106.747 93.0493C107.276 92.0358 107.543 90.9149 107.523 89.7533C107.508 88.5918 107.223 87.3954 106.764 86.2309C106.312 85.0607 105.682 83.9252 105 82.8072C104.301 81.698 103.53 80.609 102.71 79.5375C101.075 77.3915 99.2879 75.2978 97.5357 73.0647C96.6625 71.9438 95.804 70.7793 94.9896 69.5365C94.1781 68.2936 93.4049 66.9694 92.764 65.4913C91.4733 62.4655 90.9735 59.4077 90.7589 56.4631C90.3708 50.5915 91.1293 45.1873 91.0206 40.3436C90.9706 37.9276 90.7001 35.6974 89.9886 33.7227C89.6358 32.7296 89.1507 31.8033 88.5509 30.9089C87.9894 30.09 87.372 29.4279 86.6017 28.9488C85.8373 28.4638 84.8877 28.1299 83.7881 27.9992C82.6915 27.8627 81.4802 27.9121 80.2483 28.0747C79.0135 28.2373 77.7522 28.5074 76.4851 28.8268C75.2268 29.1665 73.9567 29.5411 72.6954 29.9564C70.167 30.7724 67.6562 31.7016 65.1043 32.5322C62.5553 33.3685 59.9592 34.1032 57.2691 34.5039L57.2721 34.501Z" fill="#EAECF0"/>
<path d="M69.3378 132.418C68.4323 132.647 67.5797 132.786 66.7477 132.879C66.3302 132.935 65.9274 132.964 65.5187 132.998C65.1189 133.022 64.7132 133.045 64.3192 133.051C63.5254 133.083 62.7551 133.059 61.9848 133.036C58.9243 132.917 55.9989 132.453 53.1177 132.014L52.0946 131.863L51.6418 131.796L51.1773 131.761C50.8686 131.732 50.5452 131.741 50.2247 131.732C49.9013 131.747 49.575 131.759 49.2428 131.785C48.9106 131.814 48.5813 131.843 48.2432 131.898C47.9109 131.944 47.5728 132 47.2318 132.063C46.5585 132.2 45.8706 132.345 45.1914 132.531C42.4454 133.248 39.7318 134.308 36.7036 134.993C35.1807 135.31 33.546 135.542 31.8114 135.359C30.9411 135.29 30.0738 135.072 29.2183 134.796C28.8008 134.642 28.3716 134.485 27.9747 134.285C27.7718 134.186 27.5631 134.093 27.369 133.989L26.7928 133.652C26.0225 133.196 25.3316 132.659 24.6701 132.092C24.3349 131.805 24.0145 131.457 23.6881 131.131C23.3706 130.794 23.106 130.431 22.8149 130.071C22.5327 129.711 22.3063 129.334 22.0564 128.953C21.93 128.765 21.83 128.57 21.7242 128.378L21.4125 127.792L21.2597 127.496L21.1303 127.197L20.8775 126.592C20.6952 126.192 20.5688 125.788 20.4365 125.379C19.9131 123.752 19.6338 122.097 19.5427 120.462C19.4633 118.83 19.5603 117.213 19.8102 115.633C20.0631 114.056 20.5041 112.523 21.0686 111.045C21.2156 110.676 21.3684 110.313 21.5213 109.95C21.683 109.59 21.8653 109.236 22.0388 108.882C22.2093 108.527 22.4004 108.179 22.5974 107.836C22.7944 107.494 22.9855 107.151 23.203 106.817C24.035 105.481 25.0082 104.227 26.0372 103.056C27.075 101.889 28.1775 100.797 29.3682 99.8273C30.5501 98.8545 31.7879 97.9776 33.105 97.2516C34.4221 96.5314 35.8245 95.9768 37.2916 95.6632C38.7704 95.3524 40.3463 95.3873 41.8427 95.7677C43.3392 96.1394 44.7622 96.7957 46.1058 97.5565C48.79 99.0985 51.2537 101.018 53.5205 103.033C54.6583 104.047 55.7255 105.101 56.7398 106.184C56.8809 106.347 56.9633 106.39 57.0544 106.474L57.319 106.704C57.5248 106.84 57.6806 107 57.8953 107.125L58.1863 107.328C58.2922 107.392 58.4009 107.45 58.5009 107.52C58.6949 107.656 58.9419 107.767 59.1477 107.897C60.0562 108.394 61.0881 108.876 62.2788 109.343L64.1516 110.072L65.1542 110.461L66.2008 110.888C66.9094 111.17 67.6561 111.524 68.4146 111.896C69.1791 112.297 69.967 112.729 70.7608 113.278C71.5575 113.842 72.3602 114.46 73.1069 115.259C73.8478 116.043 74.5416 116.946 75.065 117.948L75.2678 118.319L75.4413 118.703C75.553 118.958 75.6706 119.214 75.7706 119.472C75.9411 119.986 76.1322 120.515 76.2322 121.029L76.3968 121.804L76.4968 122.559C76.5732 123.073 76.5761 123.549 76.5938 124.037C76.5997 124.168 76.6026 124.266 76.6026 124.415C76.6026 124.612 76.5908 124.807 76.5761 125.004C76.5644 125.387 76.4879 125.808 76.3968 126.218C76.3762 126.317 76.3527 126.421 76.3233 126.52L76.2233 126.831C76.1528 127.034 76.0793 127.237 76.0028 127.438C75.8264 127.827 75.6236 128.213 75.3972 128.561C75.2796 128.73 75.1591 128.898 75.0356 129.061C74.9738 129.145 74.9092 129.226 74.8474 129.302L74.6504 129.517C74.5211 129.656 74.3858 129.793 74.2477 129.929C74.1124 130.066 73.9801 130.164 73.8419 130.283C73.7067 130.394 73.5685 130.507 73.4303 130.609L73.0275 130.879C72.8923 130.963 72.7541 131.062 72.6218 131.131L72.2308 131.343C71.1841 131.883 70.2286 132.185 69.3231 132.418H69.3378Z" fill="#EAECF0"/>
<path d="M111.042 57.8748C110.869 56.8846 110.813 55.9466 110.839 55.0377C110.866 53.2199 111.28 51.5559 111.736 49.9356C112.198 48.3123 112.756 46.7326 113.456 45.2109C114.167 43.6951 115.038 42.2402 116.12 40.9074C117.204 39.5774 118.451 38.3287 119.939 37.263C121.435 36.2147 123.29 35.4451 125.328 35.1431C126.342 34.995 127.4 34.966 128.432 35.0821C129.461 35.2041 130.455 35.4626 131.322 35.8517C132.198 36.235 132.945 36.7228 133.589 37.2397C134.239 37.7595 134.8 38.3113 135.344 38.863C135.63 39.1708 135.885 39.5019 136.112 39.859C136.323 40.222 136.5 40.6053 136.653 41.0061C136.935 41.8047 137.114 42.6555 137.229 43.5238C137.461 45.2603 137.511 47.1159 137.288 48.896C137.064 50.6731 136.509 52.3313 135.632 53.7455C134.756 55.1597 133.61 56.3619 132.257 57.3231C130.911 58.293 129.329 58.987 127.78 59.62C126.207 60.2357 124.687 60.8164 123.24 61.4901C121.767 62.1406 120.394 62.9159 118.633 63.4561C118.189 63.5867 117.719 63.7087 117.19 63.7639C116.669 63.8307 116.096 63.8423 115.473 63.7378C114.802 63.6274 114 63.2557 113.409 62.7446C113.265 62.6168 113.115 62.4804 112.991 62.341C112.868 62.2045 112.747 62.0622 112.63 61.9141C112.427 61.6353 112.224 61.3333 112.083 61.0575C111.918 60.7613 111.807 60.4999 111.686 60.2124C111.586 59.9511 111.474 59.6636 111.404 59.411L111.289 59.016L111.192 58.6327C111.13 58.3743 111.086 58.1303 111.039 57.8806L111.042 57.8748Z" fill="#EAECF0"/>
</g>
<path d="M50.721 19.1616C50.5994 19.0197 43.5257 15.7774 37.1189 20.6063C31.2316 25.0457 29.1869 33.3898 29.9679 33.5899C30.9258 33.8337 33.549 29.8528 38.5852 27.6658C40.3721 26.8907 43.2126 27.6658 43.2126 27.6658L50.721 19.1652V19.1616Z" fill="white"/>
<path opacity="0.1" d="M43.2123 27.6658C43.2123 27.6658 41.9781 27.3273 40.626 27.3237C41.7349 25.0275 43.8091 20.7445 45.1575 17.9717C48.3259 18.0008 50.647 19.0852 50.717 19.1689L43.2123 27.6694V27.6658Z" fill="black"/>
<path d="M62.3702 32.7391C62.4918 32.8811 64.5734 40.3045 58.7045 45.7556C53.3071 50.7663 44.6382 51.3959 44.5682 50.6026C44.4798 49.631 48.8861 47.7242 51.8961 43.1756C52.9645 41.5635 52.655 38.6669 52.655 38.6669L62.3739 32.7428L62.3702 32.7391Z" fill="white"/>
<path opacity="0.1" d="M62.65 38.3896C59.6364 39.2557 55.009 40.5875 52.5664 41.2862C52.7911 39.9507 52.6548 38.6589 52.6548 38.6589L62.3737 32.7347C62.4437 32.8148 63.1548 35.2783 62.6537 38.386L62.65 38.3896Z" fill="black"/>
<path d="M45.902 41.8102L38.9941 33.7609C38.9941 33.7609 42.5973 24.2197 51.1593 17.8079C55.4367 14.6129 60.4509 12.2185 64.9419 10.6356C71.1387 8.44134 76.3261 7.80453 77.1292 8.73974C77.9361 9.67858 76.4476 14.6239 73.2461 20.3079C70.925 24.4198 67.7161 28.9175 63.8219 32.5601C56.0188 39.8561 45.8983 41.8066 45.8983 41.8066L45.902 41.8102Z" fill="#D0D5DD"/>
<path d="M62.6837 29.1214C60.09 31.2938 56.2032 30.9772 54 28.4154C51.8006 25.8536 52.1211 22.0145 54.7148 19.8385C57.3084 17.666 61.1953 17.9826 63.3984 20.5444C65.5979 23.1062 65.2774 26.9453 62.6837 29.1214Z" fill="#98A2B3"/>
<path d="M63.0226 28.5537C60.4289 30.7261 56.5421 30.4095 54.3389 27.8477C52.1395 25.2859 52.46 21.4469 55.0536 19.2708C57.6473 17.0984 61.5341 17.4149 63.7373 19.9767C65.9367 22.5385 65.6162 26.3776 63.0226 28.5537Z" fill="white"/>
<path d="M61.8031 27.1308C60.0052 28.641 57.3084 28.4226 55.7795 26.6469C54.2505 24.8711 54.4716 22.2074 56.2695 20.6972C58.0674 19.1871 60.7642 19.4054 62.2931 21.1812C63.8221 22.957 63.601 25.6207 61.8031 27.1308Z" fill="#EAECF0"/>
<path d="M61.8032 27.1309C61.3869 27.4802 60.9227 27.7386 60.4364 27.9023L57.0027 27.6258C56.5496 27.3856 56.1333 27.0545 55.7796 26.6469C55.5217 26.3485 55.3154 26.0246 55.1606 25.6862L62.5732 26.283C62.3632 26.5923 62.1053 26.8798 61.8032 27.1309Z" fill="#EAECF0"/>
<path d="M62.6653 21.6834L55.8237 21.1303C55.96 20.9775 56.1074 20.8319 56.2695 20.6936C58.0711 19.1835 60.7642 19.4018 62.2932 21.1776C62.4295 21.3377 62.5547 21.5051 62.6616 21.6798L62.6653 21.6834Z" fill="#EAECF0"/>
<path d="M63.0374 25.406L54.8548 24.7474C54.8291 24.6236 54.8106 24.4999 54.7959 24.3726L63.159 25.0458C63.1259 25.1658 63.0853 25.2859 63.0411 25.406H63.0374Z" fill="#EAECF0"/>
<path d="M73.25 20.3115L64.9458 10.6356C71.1426 8.44134 76.33 7.80453 77.1331 8.73974C77.9399 9.67858 76.4515 14.6239 73.25 20.3079V20.3115Z" fill="white"/>
<path d="M67.3844 11.458C67.2333 11.5854 67.0049 11.5672 66.8759 11.418C66.747 11.2688 66.7654 11.0432 66.9165 10.9158C67.0675 10.7885 67.2959 10.8067 67.4249 10.9559C67.5538 11.1051 67.5354 11.3307 67.3844 11.458Z" fill="#EAECF0"/>
<path d="M68.8619 13.1792C68.7108 13.3066 68.4824 13.2884 68.3535 13.1392C68.2245 12.99 68.243 12.7644 68.394 12.637C68.5451 12.5097 68.7735 12.5279 68.9024 12.6771C69.0314 12.8263 69.0129 13.0519 68.8619 13.1792Z" fill="#EAECF0"/>
<path d="M70.3389 14.8968C70.1879 15.0242 69.9595 15.006 69.8305 14.8568C69.7016 14.7076 69.72 14.482 69.8711 14.3546C70.0221 14.2273 70.2505 14.2455 70.3795 14.3946C70.5084 14.5438 70.49 14.7695 70.3389 14.8968Z" fill="#EAECF0"/>
<path d="M71.8165 16.618C71.6654 16.7454 71.437 16.7272 71.3081 16.578C71.1791 16.4288 71.1975 16.2032 71.3486 16.0758C71.4996 15.9484 71.7281 15.9666 71.857 16.1158C71.986 16.265 71.9675 16.4906 71.8165 16.618Z" fill="#EAECF0"/>
<path d="M73.294 18.3393C73.143 18.4666 72.9146 18.4484 72.7856 18.2992C72.6567 18.15 72.6751 17.9244 72.8261 17.7971C72.9772 17.6697 73.2056 17.6879 73.3346 17.8371C73.4635 17.9863 73.4451 18.2119 73.294 18.3393Z" fill="#EAECF0"/>
<path d="M40.9874 33.5753C40.8363 33.7027 40.6079 33.6845 40.479 33.5353C40.35 33.3861 40.3684 33.1605 40.5195 33.0331C40.6705 32.9058 40.899 32.924 41.0279 33.0732C41.1569 33.2224 41.1384 33.448 40.9874 33.5753Z" fill="#98A2B3"/>
<path d="M42.4649 35.2965C42.3139 35.4239 42.0854 35.4057 41.9565 35.2565C41.8276 35.1073 41.846 34.8817 41.997 34.7543C42.1481 34.627 42.3765 34.6452 42.5054 34.7944C42.6344 34.9436 42.616 35.1692 42.4649 35.2965Z" fill="#98A2B3"/>
<path d="M43.942 37.0177C43.7909 37.1451 43.5625 37.1269 43.4336 36.9777C43.3046 36.8285 43.323 36.6029 43.4741 36.4755C43.6251 36.3482 43.8536 36.3664 43.9825 36.5156C44.1114 36.6648 44.093 36.8904 43.942 37.0177Z" fill="#98A2B3"/>
<path d="M45.4195 38.739C45.2685 38.8663 45.04 38.8481 44.9111 38.699C44.7821 38.5498 44.8006 38.3241 44.9516 38.1968C45.1027 38.0694 45.3311 38.0876 45.46 38.2368C45.589 38.386 45.5706 38.6116 45.4195 38.739Z" fill="#98A2B3"/>
<path d="M46.897 40.4602C46.746 40.5875 46.5176 40.5693 46.3886 40.4201C46.2597 40.2709 46.2781 40.0453 46.4292 39.918C46.5802 39.7906 46.8086 39.8088 46.9376 39.958C47.0665 40.1072 47.0481 40.3328 46.897 40.4602Z" fill="#98A2B3"/>
<path opacity="0.2" d="M76.7431 8.50417C71.961 8.83895 63.6789 11.7028 54.9621 18.4566C48.5222 23.4456 43.8211 32.1717 41.6327 36.8332L38.9985 33.7619C38.9985 33.7619 42.6017 24.2207 51.1637 17.8125C55.4411 14.6139 60.4553 12.2231 64.9463 10.6402C70.5021 8.67156 75.2399 7.95834 76.7431 8.50417Z" fill="#EAECF0"/>
<path d="M42.8181 43.1202L37.1997 36.5774L39.3844 34.2194L45.5297 41.3772L42.8181 43.1202Z" fill="white"/>
<path opacity="0.1" d="M45.5299 41.3772L44.2073 42.225L38.5483 35.1219L39.3847 34.2194L45.5299 41.3772Z" fill="black"/>
<path opacity="0.6" d="M41.5804 41.661C38.9756 43.3968 36.6767 45.6093 35.0004 48.2511C33.3204 50.8821 32.2778 53.9497 32.182 57.1228C32.1415 58.7057 32.333 60.3069 32.7678 61.857C33.1988 63.4109 33.873 64.9101 34.7572 66.3074C35.6378 67.7011 36.7246 68.9893 37.9588 70.1356C39.193 71.2855 40.5709 72.3007 42.0372 73.1886C40.4788 72.4754 38.972 71.6166 37.5757 70.5905C36.1793 69.5643 34.8899 68.3634 33.7846 66.9916C32.6757 65.6233 31.7509 64.0877 31.0731 62.432C30.3915 60.7763 29.9567 59.0078 29.791 57.2029C29.4667 53.5858 30.2404 49.8704 31.8431 46.5554C33.442 43.2294 35.8404 40.3001 38.6699 37.902L41.5841 41.661H41.5804Z" fill="white"/>
<path d="M37.13 45.6056L36.1058 45.7912L35.8737 46.8611L35.6453 45.7912L34.6211 45.6056L35.6416 45.3582L35.8737 44.3502L36.1095 45.3582L37.13 45.6056Z" fill="#EAECF0"/>
<path d="M33.3575 65.5833L32.7865 65.6888L32.6575 66.2856L32.5286 65.6888L31.9575 65.5833L32.5286 65.445L32.6575 64.881L32.7865 65.445L33.3575 65.5833Z" fill="#EAECF0"/>
<path d="M33.0516 60.4087L32.4769 60.5106L32.3516 61.1074L32.2227 60.5106L31.6479 60.4087L32.219 60.2705L32.3516 59.7064L32.4806 60.2705L33.0516 60.4087Z" fill="#EAECF0"/>
<path d="M36.3707 42.2797L35.7996 42.3852L35.6707 42.982L35.5418 42.3852L34.9707 42.2797L35.5418 42.1414L35.6707 41.581L35.7996 42.1414L36.3707 42.2797Z" fill="#EAECF0"/>
<path d="M34.713 66.8715C34.4993 66.8715 34.4993 67.199 34.713 67.199C34.9267 67.199 34.9267 66.8715 34.713 66.8715Z" fill="#EAECF0"/>
<path d="M39.4508 41.4827C39.2371 41.4827 39.2371 41.8102 39.4508 41.8102C39.6645 41.8102 39.6645 41.4827 39.4508 41.4827Z" fill="#EAECF0"/>
<path d="M30.5133 56.1039C30.2996 56.1039 30.2996 56.4314 30.5133 56.4314C30.727 56.4314 30.727 56.1039 30.5133 56.1039Z" fill="#EAECF0"/>
<path d="M34.4185 66.02C34.2674 66.02 34.2674 66.2528 34.4185 66.2528C34.5695 66.2528 34.5695 66.02 34.4185 66.02Z" fill="#EAECF0"/>
<path d="M30.4541 50.3762C30.3031 50.3762 30.3031 50.6091 30.4541 50.6091C30.6052 50.6091 30.6052 50.3762 30.4541 50.3762Z" fill="#EAECF0"/>
<path d="M31.6475 62.2391C31.2386 62.2391 31.2386 62.8687 31.6475 62.8687C32.0565 62.8687 32.0565 62.2391 31.6475 62.2391Z" fill="#EAECF0"/>
<path d="M31.9571 49.3064C31.5482 49.3064 31.5482 49.9359 31.9571 49.9359C32.366 49.9359 32.366 49.3064 31.9571 49.3064Z" fill="#EAECF0"/>
<path d="M126.166 20.8913L126.203 18.4241L127.857 20.2544L129.644 19.705L128.767 21.2733L129.607 22.143L128.31 22.274L128.288 23.937L126.859 22.7653L125.694 23.7223L125.827 22.3141L124.132 21.539L126.166 20.8913Z" fill="white"/>
<path d="M144.45 126.46L146.738 127.442L144.391 128.243L144.21 130.084L143.087 128.68L141.944 129.109L142.328 127.875L140.78 127.209L142.431 126.362L141.989 124.935L143.252 125.597L144.627 124.353L144.45 126.46Z" fill="white"/>
<path d="M132.86 103.571L134.193 106.198L135.516 103.684L138.043 104.113L136.699 101.471L138.574 99.7065L135.921 99.8011L135.391 97.232L133.987 99.892L130.458 99.6264L132.539 101.752L130.609 103.211L132.86 103.571Z" fill="white"/>
<path d="M79.8813 35.7799C80.5424 35.337 81.3837 34.7906 81.7594 34.5839C82.2402 34.3181 82.6609 34.2 83.1867 34.2C83.6825 34.2 84.1032 34.3034 84.4187 34.4953C84.6892 34.6577 85.0197 35.0121 85.155 35.2779C85.2902 35.5289 85.5005 36.5182 85.6207 37.4485C85.7409 38.3787 85.9964 39.9734 86.1917 40.9922C86.402 42.011 86.7927 43.6648 87.0781 44.6836C87.3636 45.7024 87.9045 47.4005 88.2951 48.4488C88.6858 49.512 89.1215 50.516 89.2567 50.708C89.3919 50.8999 89.7075 51.1067 89.9479 51.1952C90.1883 51.2691 90.5338 51.2838 90.6991 51.2395C90.8644 51.1805 91.4053 50.8556 91.9011 50.5308C92.3969 50.206 93.3435 49.6892 94.0046 49.3938C94.6656 49.0838 95.7474 48.6999 96.4085 48.5227C97.0696 48.3602 97.9861 48.2274 98.4369 48.2274C99.0529 48.2126 99.3984 48.3012 99.7741 48.5522C100.06 48.7442 100.405 49.1281 100.57 49.4086C100.721 49.6892 100.841 50.1321 100.841 50.3684C100.841 50.6194 100.706 51.2395 100.54 51.7711C100.375 52.3027 100.15 53.4692 100.06 54.3551C99.9393 55.5511 99.9393 56.4961 100.075 57.9727C100.165 59.0653 100.375 60.7338 100.555 61.6641C100.721 62.5943 101.126 64.3662 101.442 65.577C101.757 66.8025 102.358 68.7516 102.779 69.9328C103.185 71.1141 103.786 72.8121 104.116 73.6981C104.447 74.5988 104.882 76.0901 105.093 77.0203C105.318 77.9506 105.559 79.4124 105.649 80.2688C105.724 81.1252 105.799 82.6017 105.799 83.5615C105.799 84.5065 105.694 86.0717 105.574 87.0314C105.438 87.9764 105.198 89.3201 105.033 90.0141C104.882 90.7081 104.537 91.9041 104.281 92.6719C104.026 93.4397 103.425 94.872 102.944 95.8465C102.463 96.821 101.667 98.2238 101.156 98.9473C100.661 99.6856 99.8342 100.734 99.3233 101.31C98.8125 101.886 97.8809 102.801 97.2499 103.347C96.6189 103.909 95.462 104.78 94.6807 105.297C93.8994 105.813 92.5471 106.566 91.6757 106.965C90.8043 107.364 89.452 107.895 88.6708 108.146C87.8895 108.397 86.7025 108.737 86.0414 108.899C85.3803 109.062 84.2234 109.283 83.4872 109.401C82.751 109.534 81.8044 109.667 81.3837 109.711C80.918 109.77 80.6926 109.756 80.7828 109.667C80.8729 109.593 81.4739 109.387 82.135 109.209C82.7961 109.032 83.8779 108.634 84.5389 108.323C85.2 107.999 86.2067 107.393 86.7776 106.965C87.3486 106.537 88.205 105.769 88.6557 105.252C89.1215 104.735 89.8878 103.717 90.3686 102.964C90.8493 102.21 91.4503 101.103 91.7058 100.498C91.9612 99.8923 92.3368 98.7553 92.5471 97.9875C92.8777 96.762 92.9228 96.2895 92.9228 94.2223C92.9228 92.4652 92.8326 91.402 92.5922 90.0879C92.4119 89.1134 92.0664 87.622 91.8109 86.7656C91.5555 85.9092 90.9996 84.3884 90.5939 83.3695C90.1732 82.3507 89.5572 80.9923 89.2267 80.3426C88.8961 79.6929 88.19 78.3935 87.6491 77.4633C87.1232 76.5331 86.1316 74.9384 85.4555 73.9195C84.3587 72.251 84.1784 72.0443 83.5623 71.7933C83.1116 71.6161 82.7059 71.557 82.3153 71.6161C82.0148 71.6604 81.534 71.8967 81.2635 72.1181C81.0081 72.3544 80.7076 72.7383 80.6025 72.9745C80.4973 73.2403 80.3921 74.6726 80.347 76.725C80.302 79.0728 80.1968 80.505 79.9864 81.5977C79.8362 82.4541 79.5207 83.7092 79.2803 84.4031C79.0549 85.0971 78.8145 85.732 78.7394 85.8059C78.6492 85.8945 78.6192 75.7505 78.6643 36.6068L79.8813 35.7799Z" fill="#FF4405"/>
<path d="M73.4063 41.0513C74.6534 39.8257 76.3211 38.3344 77.1024 37.7438L78.5298 36.6807L78.68 85.9536L78.3044 86.6771C78.094 87.0757 77.7184 87.6368 77.463 87.9321C77.2076 88.2275 76.6667 88.6409 76.261 88.8476C75.8553 89.0691 75.1492 89.3201 74.6984 89.4235C74.2176 89.5268 73.241 89.5859 72.3696 89.5416C71.1376 89.4973 70.7019 89.4087 69.9656 89.0839C69.4698 88.8476 68.7937 88.4637 68.4632 88.1979C67.9974 87.8436 67.6819 87.7254 67.0358 87.6664C66.2395 87.6073 66.1794 87.6368 65.5634 88.1832C64.9924 88.7 64.8873 88.8919 64.5717 90.1618C64.3614 90.9296 64.136 92.288 64.0609 93.1887C63.9858 94.1189 63.9708 95.4183 64.0459 96.2157C64.106 96.9835 64.2412 97.9432 64.3314 98.3567C64.4215 98.7554 64.6318 99.5232 64.8121 100.055C64.9774 100.586 65.3831 101.546 65.7136 102.196C66.0442 102.845 66.6001 103.776 66.9607 104.263C67.3063 104.75 68.0725 105.592 68.6284 106.123C69.1994 106.655 70.1459 107.393 70.7169 107.762C71.2878 108.117 72.2344 108.619 72.7903 108.855C73.3462 109.091 73.797 109.328 73.797 109.387C73.797 109.46 73.6167 109.46 73.3913 109.416C73.1509 109.372 72.5649 109.224 72.0691 109.106C71.5733 109.003 70.6267 108.737 69.9656 108.53C69.3046 108.323 67.8922 107.718 66.8104 107.201C65.7287 106.684 64.2112 105.799 63.4299 105.252C62.6486 104.706 61.1912 103.466 60.1845 102.491C59.1929 101.517 57.9158 100.114 57.3749 99.3903C56.819 98.6668 55.9475 97.3379 55.4367 96.4371C54.9108 95.5512 54.1446 93.9861 53.7088 92.9672C53.2731 91.9484 52.6872 90.2947 52.4167 89.2758C52.1312 88.257 51.7406 86.5589 51.5453 85.5106C51.2448 83.8421 51.1997 83.1186 51.1997 79.8997C51.1997 76.7398 51.2448 75.9277 51.5303 74.2887C51.7256 73.2403 52.1012 71.4685 52.3867 70.3758C52.6721 69.2832 53.0177 68.2348 53.1379 68.0429C53.2581 67.8657 53.5886 67.5851 53.8591 67.4227C54.1446 67.2455 54.6103 67.1274 54.9709 67.1274C55.4367 67.1274 56.5185 67.4818 58.7722 68.3825C60.5151 69.0764 62.1377 69.6375 62.3781 69.6375C62.6336 69.6375 62.9641 69.5046 63.1294 69.3422C63.2946 69.1798 63.4449 68.9583 63.4449 68.8697C63.4599 68.7664 63.4599 67.1569 63.4449 65.2817C63.4148 62.8454 63.4749 61.3836 63.6552 60.1137C63.7754 59.1392 64.0609 57.6183 64.2863 56.7176C64.4966 55.8169 64.9023 54.4289 65.1878 53.6168C65.4732 52.8047 66.0592 51.402 66.4949 50.5161C66.9306 49.6301 67.6368 48.3012 68.0875 47.5629C68.5383 46.8246 69.4097 45.5696 70.0257 44.7575C70.6418 43.9454 72.1593 42.2768 73.4063 41.0513Z" fill="#FF692E"/>
<path d="M80.9027 72.4282C81.098 72.1625 81.4887 71.8671 81.7742 71.7638C82.0596 71.6604 82.4352 71.5718 82.6155 71.5571C82.8109 71.5571 83.2466 71.6752 83.5922 71.8081C84.1481 72.0443 84.3885 72.3101 85.4552 73.9196C86.1313 74.9384 87.123 76.5331 87.6488 77.4633C88.1897 78.3936 88.8959 79.6929 89.2264 80.3426C89.557 80.9923 90.173 82.3507 90.5937 83.3696C90.9994 84.3884 91.5553 85.9093 91.8107 86.7657C92.0661 87.6221 92.4117 89.1134 92.592 90.0879C92.8324 91.4021 92.9225 92.4652 92.9225 94.2223C92.9225 96.2895 92.8775 96.762 92.5469 97.9875C92.3366 98.7553 91.9609 99.8923 91.7055 100.498C91.4501 101.103 90.8491 102.211 90.3683 102.964C89.8875 103.717 89.1213 104.735 88.6555 105.252C88.2048 105.769 87.3483 106.537 86.7774 106.965C86.2065 107.393 85.1998 107.999 84.5387 108.323C83.8776 108.634 82.7958 109.032 82.1348 109.209C81.4737 109.387 80.8727 109.593 80.7975 109.667C80.7074 109.741 80.1815 109.8 78.6039 109.8L78.5889 98.1057C78.5739 91.6678 78.5739 86.367 78.5889 86.3227C78.5889 86.2784 78.8443 85.5844 79.1448 84.7723C79.4303 83.9602 79.8059 82.5279 79.9862 81.5977C80.2116 80.3574 80.3168 79.058 80.3618 76.725C80.3919 74.9827 80.452 73.4028 80.482 73.2108C80.5271 73.0336 80.7224 72.6793 80.9027 72.4282Z" fill="#FFBB00"/>
<path d="M76.5766 88.6556C76.9973 88.375 77.5833 87.7992 77.9138 87.3267V87.3119C78.2444 86.8542 78.5298 86.4703 78.5599 86.4703C78.5749 86.4703 78.605 91.7121 78.605 109.8H77.2828C76.5616 109.8 75.4948 109.726 74.9239 109.638C74.3379 109.564 73.8421 109.431 73.797 109.357C73.752 109.298 73.2862 109.047 72.7453 108.825C72.2044 108.604 71.2879 108.117 70.717 107.762C70.146 107.393 69.1995 106.655 68.6285 106.123C68.0726 105.592 67.3063 104.75 66.9608 104.263C66.6002 103.776 66.0443 102.845 65.7137 102.196C65.3832 101.546 64.9775 100.586 64.8122 100.055C64.6319 99.5231 64.4216 98.7553 64.3314 98.3566C64.2413 97.9432 64.1061 96.9834 64.046 96.2156C63.9708 95.4182 63.9859 94.1189 64.061 93.1886C64.1361 92.2879 64.3615 90.9295 64.5718 90.1617C64.8874 88.8918 64.9925 88.6999 65.5635 88.1831C66.1795 87.6368 66.2396 87.6072 67.0359 87.6663C67.682 87.7254 67.9975 87.8435 68.4633 88.1979C68.7938 88.4636 69.4699 88.8623 69.9657 89.0838C70.8071 89.4677 71.0024 89.4972 72.7453 89.4972C73.782 89.4972 74.8939 89.4234 75.2244 89.32C75.5549 89.2167 76.1559 88.9214 76.5766 88.6556Z" fill="#FDE272"/>
<defs>
<filter id="filter0_b_833_34038" x="19.5" y="106" width="118" height="58" filterUnits="userSpaceOnUse" color-interpolation-filters="sRGB">
<feFlood flood-opacity="0" result="BackgroundImageFix"/>
<feGaussianBlur in="BackgroundImageFix" stdDeviation="8"/>
<feComposite in2="SourceAlpha" operator="in" result="effect1_backgroundBlur_833_34038"/>
<feBlend mode="normal" in="SourceGraphic" in2="effect1_backgroundBlur_833_34038" result="shape"/>
</filter>
</defs>
</svg>
