<svg width="25" height="24" viewBox="0 0 25 24" fill="none" xmlns="http://www.w3.org/2000/svg">
<rect x="1.0125" y="0.2625" width="23.475" height="23.475" rx="11.7375" fill="white"/>
<rect x="1.0125" y="0.2625" width="23.475" height="23.475" rx="11.7375" stroke="#F2F4F7" stroke-width="0.525"/>
<path d="M10.9 7.75002H12.5M10.9 7.75002C10.0599 7.75002 9.63988 7.75002 9.31901 7.91351C9.03677 8.05732 8.8073 8.28679 8.66349 8.56903C8.5 8.8899 8.5 9.30994 8.5 10.15V13.85C8.5 14.6901 8.5 15.1101 8.66349 15.431C8.8073 15.7132 9.03677 15.9427 9.31901 16.0865C9.63988 16.25 10.0599 16.25 10.9 16.25H14.6C15.4401 16.25 15.8601 16.25 16.181 16.0865C16.4632 15.9427 16.6927 15.7132 16.8365 15.431C17 15.1101 17 14.6901 17 13.85M10.9 7.75002L14.6 7.75C15.4401 7.75 15.8601 7.75 16.181 7.91349C16.4632 8.0573 16.6927 8.28677 16.8365 8.56901C17 8.88988 17 9.30992 17 10.15L17 13.85M17 12.25V13.85M13.5 14.25H10.5M14.5 12.25H10.5" stroke="#667085" stroke-linecap="round" stroke-linejoin="round"/>
<circle cx="21" cy="3.75" r="3" fill="#9E77ED"/>
</svg>
