<svg width="171" height="170" viewBox="0 0 171 170" fill="none" xmlns="http://www.w3.org/2000/svg">
<g opacity="0.4">
<path d="M169.154 88.6707C169.485 85.7436 169.333 82.7433 168.516 79.9433C167.709 77.1626 166.214 74.5667 164.087 72.8181C163.561 72.3791 163.004 71.9939 162.424 71.6588C161.84 71.3315 161.228 71.0734 160.609 70.8654C159.37 70.4495 158.073 70.3031 156.8 70.3609C154.241 70.4957 151.775 71.4547 149.536 72.8335C149.4 72.9183 149.244 73.0107 149.127 73.0916L148.804 73.3304C148.593 73.5037 148.383 73.6654 148.18 73.8542C147.772 74.2162 147.378 74.6245 147.004 75.0789C146.256 75.9686 145.551 76.9969 144.924 78.11C143.643 80.3362 142.552 82.855 141.528 85.4547C139.491 90.685 137.699 96.2657 135.69 101.908C135.187 103.322 134.665 104.739 134.12 106.16C133.586 107.585 133.01 109.01 132.41 110.443C131.199 113.308 129.886 116.178 128.103 119.086C127.651 119.814 127.164 120.545 126.603 121.281C126.323 121.647 126.015 122.02 125.692 122.382C125.364 122.737 125.03 123.072 124.683 123.392C123.289 124.674 121.746 125.656 120.208 126.434C117.119 127.998 114.042 128.837 111.078 129.708C108.106 130.544 105.205 131.349 102.416 132.381C99.6351 133.405 96.9671 134.657 94.5562 136.228C92.1375 137.788 90.0109 139.714 88.2894 141.921C86.5757 144.139 85.2202 146.616 84.6126 149.111C84.3089 150.356 84.1764 151.588 84.2465 152.751C84.3244 153.91 84.5971 154.989 85.0567 155.917C85.9603 157.781 87.526 159.025 89.3799 159.622C90.3069 159.93 91.3118 160.073 92.3478 160.088C93.3877 160.088 94.4627 159.961 95.5455 159.699C95.8142 159.634 96.0869 159.557 96.3556 159.476L97.3215 159.187C97.9603 158.987 98.5952 158.779 99.2222 158.548C100.476 158.089 101.703 157.577 102.926 156.995C105.368 155.84 107.806 154.38 110.51 152.828C113.201 151.272 116.192 149.697 119.378 148.434C122.572 147.193 125.898 146.242 129.22 145.641C129.637 145.557 130.05 145.499 130.467 145.429L131.581 145.252C132.196 145.148 132.819 145.029 133.446 144.898C134.693 144.625 135.935 144.289 137.15 143.897C142.015 142.314 146.397 139.803 149.731 136.263C151.413 134.503 152.893 132.516 154.147 130.289C154.782 129.18 155.363 128.009 155.869 126.785C156.395 125.564 156.839 124.285 157.248 122.972C157.645 121.654 157.992 120.299 158.272 118.908C158.408 118.258 158.552 117.403 158.7 116.632C158.864 115.847 159.028 115.065 159.215 114.291C159.97 111.19 160.932 108.182 162.089 105.29C163.222 102.39 164.543 99.6088 165.863 96.8781C166.529 95.5109 167.191 94.1552 167.799 92.7956C168.399 91.436 168.967 90.0457 169.154 88.6784V88.6707ZM170.323 88.7939C170.237 89.6104 170.027 90.3692 169.801 91.1125C169.575 91.8558 169.306 92.5722 169.045 93.2847C168.516 94.7098 167.966 96.1117 167.479 97.529C166.985 98.9425 166.541 100.368 166.163 101.804C165.785 103.241 165.497 104.693 165.256 106.141C164.8 109.049 164.644 111.968 164.78 114.853C164.808 115.573 164.862 116.293 164.917 117.006C164.987 117.738 165.061 118.385 165.131 119.232C165.267 120.846 165.326 122.486 165.279 124.143C165.193 127.455 164.687 130.856 163.6 134.183C162.521 137.503 160.85 140.742 158.63 143.596C156.414 146.454 153.703 148.938 150.736 150.96C147.764 152.986 144.543 154.557 141.216 155.701C139.553 156.279 137.859 156.745 136.134 157.115C135.273 157.304 134.401 157.458 133.516 157.585L131.37 157.893C128.698 158.316 126.116 158.883 123.604 159.726C121.076 160.531 118.603 161.633 115.931 162.907C113.271 164.178 110.381 165.642 107.23 166.855C105.66 167.46 104.04 168.011 102.393 168.457C101.571 168.681 100.741 168.881 99.9116 169.062L98.6653 169.316C98.194 169.397 97.7188 169.474 97.2398 169.536C95.3235 169.775 93.3371 169.79 91.3507 169.474C89.3683 169.174 87.3897 168.542 85.5669 167.556C83.748 166.57 82.1005 165.214 80.8152 163.585C79.5221 161.964 78.599 160.077 78.1199 158.143C77.6292 156.21 77.5669 154.249 77.8083 152.408C78.042 150.563 78.5756 148.834 79.2806 147.244C80.7295 144.066 82.7548 141.416 85.0138 139.102C86.1433 137.931 87.3702 136.868 88.636 135.87C89.9135 134.888 91.2456 133.987 92.6127 133.17C98.0927 129.897 104.099 128.021 109.61 125.648C112.356 124.478 115 123.153 117.076 121.516C118.104 120.692 118.973 119.794 119.623 118.847C119.787 118.612 119.935 118.369 120.075 118.127C120.212 117.888 120.34 117.645 120.469 117.379C120.73 116.848 120.975 116.259 121.209 115.646C121.676 114.418 122.085 113.077 122.467 111.71C122.868 110.347 123.218 108.937 123.588 107.52L124.687 103.221C125.057 101.773 125.435 100.321 125.84 98.8655C127.472 93.0421 129.364 87.1301 132.27 81.3606C133.742 78.4836 135.46 75.6335 137.738 72.9722C138.319 72.3136 138.919 71.6627 139.577 71.0388C140.223 70.411 140.92 69.8063 141.676 69.2478C142.424 68.6855 143.23 68.1617 144.095 67.7072C144.515 67.4723 144.975 67.272 145.427 67.0756L146.124 66.806C146.35 66.7251 146.545 66.6674 146.755 66.598C148.414 66.0742 150.14 65.6929 151.904 65.5273C153.668 65.3617 155.472 65.4233 157.224 65.7623C158.977 66.0896 160.663 66.7367 162.171 67.6148C162.923 68.0577 163.627 68.5623 164.27 69.1246C164.921 69.6753 165.513 70.28 166.046 70.9194C168.184 73.4921 169.38 76.5386 169.988 79.5813C170.595 82.6393 170.627 85.7397 170.315 88.7824L170.323 88.7939Z" fill="#EAECF0"/>
<path d="M52.943 14.0599C56.39 13.5746 59.7317 12.4962 62.9411 11.1289C66.1582 9.7732 69.2547 8.14018 72.3783 6.4725C73.9479 5.65214 75.5137 4.80097 77.1339 4.00372C78.7542 3.19492 80.4212 2.42463 82.205 1.77374C83.9889 1.13054 85.8895 0.587489 87.9967 0.367956C90.0843 0.152275 92.4368 0.294778 94.7309 1.11899C95.2995 1.31926 95.8487 1.59272 96.4095 1.84306C96.9431 2.13192 97.4689 2.44774 97.9908 2.76741C98.4777 3.11789 98.9646 3.48378 99.4358 3.86122C99.8721 4.25792 100.304 4.66232 100.737 5.07058C102.31 6.65352 103.65 8.52148 104.706 10.505C105.769 12.4923 106.505 14.5952 107.019 16.6673C107.522 18.7471 107.806 20.796 107.946 22.7911C108.223 26.7812 108.005 30.5479 107.736 34.1298L107.307 39.3947C107.237 40.2536 107.19 41.1009 107.132 41.9444L107.058 43.1999L107.007 44.4401C106.972 46.0847 106.953 47.6946 107.078 49.2583C107.171 50.8258 107.405 52.3625 107.744 53.776C108.102 55.2396 108.674 56.7686 109.356 58.3015C110.042 59.8382 110.824 61.3903 111.673 62.9425C113.372 66.0583 115.296 69.1703 117.173 72.3824L118.567 74.8165C119.019 75.6445 119.467 76.4765 119.892 77.3276C120.76 79.0223 121.535 80.7939 122.154 82.6619C122.758 84.5298 123.183 86.5287 123.167 88.5854C123.159 90.6382 122.665 92.7103 121.761 94.5089C121.321 95.4217 120.756 96.2344 120.172 97.0239L119.237 98.1409C118.918 98.4952 118.591 98.8149 118.264 99.1538C116.932 100.463 115.494 101.676 113.929 102.732C112.351 103.76 110.684 104.677 108.924 105.389C108.48 105.559 108.047 105.759 107.596 105.909L106.24 106.364C105.325 106.618 104.402 106.88 103.467 107.065C99.728 107.854 95.8565 108.024 92.0434 107.692C90.1349 107.535 88.2343 107.28 86.3569 106.907C84.4718 106.56 82.6218 106.075 80.7873 105.547C79.8798 105.262 78.9567 105 78.057 104.681L76.7016 104.215L75.3618 103.714C73.5818 103.028 71.833 102.277 70.1076 101.469C69.2508 101.06 68.3978 100.637 67.5448 100.217C66.7074 99.7777 65.8622 99.331 65.0326 98.8726C64.2108 98.4028 63.3734 97.9521 62.5633 97.463C61.7571 96.9662 60.9352 96.4924 60.1407 95.9763L55.5604 93.0492C54.8164 92.5717 54.0608 92.1249 53.313 91.6589L52.1874 90.9695L51.054 90.3032C45.0131 86.7021 38.8047 83.6093 32.4172 80.7824C29.2 79.3727 25.9556 78.017 22.5165 76.4842C20.7988 75.7254 19.0423 74.8704 17.2234 73.8613C15.42 72.8407 13.5427 71.6506 11.7667 70.1485C9.98673 68.6619 8.33531 66.8786 6.99159 64.976C5.6245 63.0773 4.59236 61.0784 3.73549 59.1218C3.28369 58.1397 2.94094 57.1691 2.57872 56.1909C2.40735 55.7056 2.25935 55.2242 2.09966 54.7427C1.94386 54.2613 1.78417 53.7837 1.65175 53.2638L1.24668 51.7347L1.05194 50.9683L0.900043 50.1749C0.7053 49.1158 0.494978 48.0759 0.420976 46.9705C0.370343 46.4274 0.315815 45.8844 0.280762 45.3375V43.6698V42.8379C0.288551 42.5606 0.3275 42.2794 0.350869 41.9983L0.522242 40.3267C0.607929 39.7721 0.740354 39.2137 0.84941 38.6629L1.02857 37.8387C1.09868 37.5653 1.19216 37.2957 1.27395 37.0261C1.44532 36.4869 1.6128 35.9515 1.79586 35.42C2.01397 34.9001 2.24377 34.3878 2.47356 33.8794C3.45506 31.8805 4.65857 30.0164 6.11914 28.4835L6.64884 27.8943C6.8319 27.7094 7.02664 27.5322 7.21359 27.3551C7.59529 27.0007 7.96919 26.6387 8.35478 26.3036C9.16102 25.6797 9.93999 25.0172 10.7813 24.4934C12.421 23.3496 14.162 22.4907 15.8874 21.678C17.6362 20.9231 19.3811 20.2376 21.1533 19.7022C24.6859 18.5892 28.2341 17.7958 31.7745 17.1449C32.6625 16.9908 33.5428 16.8136 34.4308 16.6827C35.3149 16.5402 36.1952 16.3746 37.0793 16.2475C37.9634 16.1088 38.8476 15.9817 39.7278 15.8546L42.3724 15.4733L52.9274 14.0483L52.943 14.0599ZM53.1378 15.1999C49.6402 15.7006 46.1699 16.3322 42.7463 17.1372L41.4649 17.4414L40.1913 17.7765C39.3383 17.9883 38.5009 18.2464 37.6635 18.4967C35.981 18.982 34.3295 19.552 32.6976 20.1529C29.4376 21.3622 26.2906 22.8181 23.3889 24.5397C21.9244 25.3793 20.5612 26.3344 19.2526 27.3088C17.9829 28.3256 16.756 29.3578 15.7277 30.5017C15.1747 31.0409 14.7384 31.6571 14.2555 32.2233L13.6284 33.1245C13.5271 33.2747 13.4181 33.4172 13.3168 33.5675L13.0559 34.0335C12.312 35.2467 11.8173 36.5177 11.459 37.7925C11.385 38.116 11.3071 38.4357 11.2175 38.7515L11.0695 39.7298C11.0461 39.8915 11.0111 40.0494 10.9955 40.2151L10.976 40.7157C10.9643 41.0508 10.9332 41.3743 10.9293 41.7056L10.9643 42.7185C10.9721 42.888 10.9643 43.0497 10.9838 43.223L11.05 43.7391L11.163 44.7675L11.3733 45.8189C11.6304 47.217 12.0744 48.6536 12.5729 50.094C12.6781 50.4484 12.8339 50.8258 12.9819 51.1994C13.1299 51.5691 13.2701 51.9504 13.422 52.3125C13.7453 53.0173 14.0413 53.7491 14.384 54.4038C15.0539 55.7441 15.7745 56.9612 16.5768 57.9895C17.383 59.0255 18.2516 59.9114 19.2798 60.7317C21.3129 62.3647 24.1095 63.7936 27.2604 65.2649C28.8261 66.0005 30.4542 66.7361 32.1134 67.4949C33.7687 68.2421 35.4357 69.0547 37.1066 69.8635C43.8057 73.1373 50.3568 76.9425 56.5458 81.1406L57.7103 81.9224L58.8593 82.7235C59.6227 83.2627 60.3978 83.7865 61.1495 84.3334L65.5545 87.5494C66.9606 88.5662 68.3822 89.5521 69.8155 90.5265L71.981 91.9477C72.7094 92.4061 73.4377 92.8682 74.1699 93.3188C75.6461 94.1931 77.1222 95.0828 78.6373 95.8724L79.7668 96.4809L80.908 97.0586C81.6675 97.4553 82.4426 97.7904 83.2138 98.1601C86.3141 99.5389 89.4923 100.721 92.7484 101.472C94.3764 101.865 96.0162 102.1 97.6598 102.262C99.3073 102.435 100.951 102.412 102.579 102.277C105.843 102.019 108.998 101.037 111.829 99.4311C113.231 98.6069 114.552 97.6325 115.755 96.5155C116.047 96.2305 116.363 95.9532 116.639 95.6605L117.426 94.7824C117.894 94.1623 118.345 93.5345 118.68 92.8528C119.381 91.5087 119.736 90.022 119.709 88.4814C119.689 86.9408 119.311 85.354 118.704 83.8096C118.104 82.2575 117.27 80.7516 116.367 79.2688C115.44 77.7975 114.419 76.3532 113.333 74.932C111.167 72.0858 108.799 69.3089 106.478 66.3471C105.321 64.8605 104.184 63.3161 103.105 61.6676C102.03 60.0192 101.005 58.263 100.156 56.3026C98.4466 52.2894 97.7844 48.2338 97.5001 44.3284C96.986 36.5408 97.9909 29.3732 97.8467 22.949C97.7805 19.7446 97.4222 16.7867 96.4796 14.1677C96.0123 12.8505 95.3696 11.6219 94.5751 10.4356C93.8311 9.34954 93.0132 8.47141 91.9928 7.83592C90.9801 7.19273 89.7221 6.74981 88.2654 6.57649C86.8126 6.39547 85.208 6.46095 83.576 6.67663C81.9402 6.89231 80.2693 7.2505 78.5906 7.67416C76.9236 8.12478 75.241 8.62161 73.5701 9.17237C70.2206 10.2546 66.8944 11.4871 63.5136 12.5886C60.1368 13.6978 56.6977 14.6722 53.1339 15.2037L53.1378 15.1999Z" fill="#EAECF0"/>
<path d="M69.1226 145.067C67.9229 145.372 66.7934 145.557 65.6912 145.68C65.1381 145.753 64.6045 145.792 64.0631 145.838C63.5334 145.869 62.996 145.899 62.474 145.907C61.4224 145.949 60.402 145.919 59.3815 145.888C55.327 145.73 51.4516 145.114 47.6347 144.532L46.2793 144.332L45.6795 144.243L45.0641 144.197C44.6551 144.159 44.2267 144.17 43.8021 144.159C43.3737 144.178 42.9414 144.193 42.5013 144.228C42.0611 144.266 41.6249 144.305 41.177 144.378C40.7369 144.44 40.289 144.513 39.8372 144.598C38.9453 144.779 38.0339 144.971 37.1342 145.218C33.4964 146.169 29.9014 147.575 25.8897 148.484C23.8722 148.903 21.7067 149.212 19.4087 148.969C18.2558 148.877 17.1068 148.588 15.9734 148.222C15.4204 148.018 14.8517 147.81 14.3259 147.544C14.0572 147.413 13.7806 147.29 13.5236 147.151L12.7602 146.704C11.7397 146.1 10.8244 145.387 9.9481 144.636C9.50409 144.255 9.07955 143.793 8.64722 143.361C8.22658 142.914 7.87604 142.433 7.49045 141.955C7.11655 141.478 6.81664 140.977 6.48558 140.473C6.3181 140.222 6.18568 139.964 6.04546 139.71L5.63261 138.932L5.43008 138.539L5.2587 138.143L4.92375 137.341C4.68226 136.81 4.51479 136.275 4.33952 135.732C3.64623 133.575 3.27622 131.379 3.15548 129.211C3.05032 127.047 3.17885 124.901 3.50992 122.806C3.84487 120.715 4.4291 118.681 5.17691 116.721C5.37165 116.232 5.57419 115.75 5.77672 115.269C5.99093 114.791 6.23241 114.321 6.46221 113.851C6.68811 113.382 6.94128 112.919 7.20223 112.465C7.46319 112.01 7.71635 111.556 8.00457 111.113C9.10681 109.341 10.396 107.678 11.7592 106.125C13.1341 104.577 14.5947 103.129 16.1721 101.843C17.7378 100.552 19.3775 99.3893 21.1224 98.4264C22.8673 97.4712 24.7252 96.7356 26.6687 96.3197C28.6278 95.9076 30.7154 95.9538 32.6979 96.4583C34.6804 96.9513 36.5655 97.8217 38.3455 98.8308C41.9015 100.876 45.1653 103.422 48.1683 106.095C49.6756 107.439 51.0894 108.837 52.4331 110.273C52.6201 110.489 52.7291 110.547 52.8499 110.659L53.2004 110.963C53.473 111.144 53.6795 111.356 53.9638 111.521L54.3494 111.791C54.4896 111.876 54.6337 111.953 54.7661 112.045C55.0232 112.226 55.3504 112.373 55.623 112.546C56.8265 113.204 58.1936 113.844 59.771 114.464L62.252 115.431L63.5802 115.947L64.9668 116.513C65.9054 116.886 66.8947 117.356 67.8996 117.849C68.9122 118.381 69.9561 118.955 71.0077 119.683C72.0632 120.43 73.1265 121.25 74.1158 122.309C75.0973 123.349 76.0164 124.547 76.7097 125.876L76.9785 126.369L77.2083 126.877C77.3563 127.216 77.5121 127.555 77.6445 127.898C77.8704 128.579 78.1236 129.28 78.256 129.962L78.4741 130.99L78.6065 131.992C78.7078 132.673 78.7117 133.305 78.735 133.952C78.7428 134.125 78.7467 134.256 78.7467 134.453C78.7467 134.715 78.7311 134.973 78.7117 135.235C78.6961 135.743 78.5948 136.302 78.4741 136.845C78.4468 136.976 78.4157 137.114 78.3767 137.245L78.2443 137.657C78.1508 137.927 78.0534 138.196 77.9522 138.462C77.7185 138.978 77.4497 139.491 77.1498 139.953C76.994 140.176 76.8344 140.399 76.6708 140.615C76.589 140.727 76.5033 140.835 76.4215 140.935L76.1605 141.22C75.9892 141.405 75.81 141.586 75.627 141.767C75.4478 141.948 75.2725 142.079 75.0895 142.237C74.9103 142.383 74.7272 142.533 74.5442 142.668L74.0106 143.026C73.8314 143.138 73.6484 143.269 73.4731 143.361L72.9551 143.642C71.5685 144.359 70.3027 144.759 69.1031 145.067H69.1226Z" fill="#EAECF0"/>
<path d="M124.371 46.2007C124.141 44.8874 124.067 43.6434 124.103 42.4379C124.138 40.0269 124.687 37.82 125.29 35.6709C125.902 33.5179 126.642 31.4227 127.569 29.4046C128.511 27.3941 129.664 25.4645 131.098 23.6967C132.535 21.9327 134.186 20.2766 136.157 18.8631C138.14 17.4728 140.597 16.4521 143.296 16.0516C144.64 15.8552 146.042 15.8166 147.409 15.9707C148.772 16.1325 150.089 16.4752 151.238 16.9913C152.399 17.4997 153.388 18.1468 154.241 18.8323C155.102 19.5217 155.846 20.2535 156.566 20.9853C156.944 21.3935 157.283 21.8326 157.583 22.3063C157.863 22.7878 158.097 23.2962 158.299 23.8277C158.673 24.8868 158.911 26.0153 159.063 27.1669C159.37 29.47 159.437 31.9311 159.141 34.292C158.845 36.6491 158.108 38.8483 156.948 40.724C155.787 42.5996 154.268 44.1941 152.476 45.469C150.693 46.7553 148.597 47.6758 146.545 48.5154C144.461 49.332 142.447 50.1022 140.531 50.9958C138.58 51.8585 136.761 52.8868 134.428 53.6032C133.84 53.7765 133.216 53.9383 132.515 54.0115C131.826 54.1001 131.066 54.1155 130.241 53.9768C129.353 53.8305 128.289 53.3375 127.507 52.6596C127.316 52.4901 127.117 52.3091 126.954 52.1243C126.79 51.9432 126.63 51.7545 126.474 51.5581C126.206 51.1884 125.937 50.7878 125.75 50.4219C125.532 50.0291 125.384 49.6824 125.224 49.3011C125.092 48.9545 124.944 48.5732 124.85 48.2381L124.698 47.7143L124.57 47.206C124.488 46.8632 124.43 46.5397 124.367 46.2084L124.371 46.2007Z" fill="#EAECF0"/>
</g>
<path d="M39.0388 158.467C42.0301 161.425 46.8831 161.425 49.8743 158.467C52.8656 155.509 52.8656 150.71 49.8743 147.752C46.8831 144.794 42.0301 144.794 39.0388 147.752C36.0476 150.71 36.0476 155.509 39.0388 158.467Z" fill="#EAECF0"/>
<path d="M47.2414 148.615C47.2687 148.969 47.1596 149.335 46.9571 149.643C46.7585 149.955 46.4586 150.205 46.1236 150.371C45.7808 150.533 45.3641 150.59 44.998 150.467C44.6358 150.352 44.332 150.113 44.1411 149.816C44.4293 150.02 44.7448 150.163 45.0603 150.217C45.22 150.244 45.3758 150.248 45.5316 150.217C45.6874 150.198 45.8354 150.14 45.9795 150.074C46.0496 150.04 46.1236 150.001 46.1937 149.959C46.2599 149.913 46.33 149.874 46.3923 149.82C46.5248 149.728 46.6377 149.608 46.7468 149.489C46.961 149.242 47.1285 148.946 47.2414 148.611V148.615Z" fill="#D0D5DD"/>
<path d="M44.4876 149.05C44.4487 148.807 44.5149 148.545 44.6473 148.326C44.7798 148.102 44.9862 147.921 45.2238 147.806C45.4652 147.686 45.769 147.656 46.0222 147.748C46.2754 147.837 46.4818 148.014 46.5948 148.233C46.3805 148.11 46.1663 148.025 45.9599 148.002C45.7496 147.971 45.5548 148.022 45.3679 148.106C44.9823 148.291 44.6785 148.603 44.4837 149.05H44.4876Z" fill="#D0D5DD"/>
<path d="M44.4527 156.672C44.55 156.891 44.55 157.153 44.4721 157.392C44.3942 157.631 44.2346 157.854 44.0281 158.004C43.8178 158.166 43.5335 158.247 43.2725 158.205C43.0155 158.166 42.7857 158.039 42.6299 157.854C42.8597 157.924 43.0817 157.958 43.2842 157.947C43.4906 157.935 43.6659 157.858 43.8217 157.739C43.9853 157.615 44.1216 157.465 44.2268 157.288C44.3319 157.107 44.4059 156.903 44.4449 156.668L44.4527 156.672Z" fill="#D0D5DD"/>
<path d="M42.8674 157.531C42.7778 157.384 42.77 157.196 42.8168 157.022C42.8674 156.849 42.9764 156.687 43.1245 156.579C43.2764 156.464 43.4867 156.406 43.6736 156.441C43.8567 156.475 44.0164 156.576 44.1098 156.722C43.9424 156.695 43.7944 156.683 43.6619 156.703C43.5334 156.722 43.4283 156.768 43.3309 156.841C43.1206 156.999 42.9726 157.207 42.8713 157.531H42.8674Z" fill="#D0D5DD"/>
<path d="M41.6947 149.855C41.8271 149.974 41.905 150.151 41.9128 150.34C41.9167 150.533 41.8388 150.733 41.6947 150.875C41.5467 151.03 41.3208 151.091 41.1338 151.064C40.9469 151.041 40.7755 150.964 40.6509 150.837C40.8261 150.837 40.9858 150.837 41.1261 150.806C41.2663 150.779 41.3753 150.729 41.4532 150.644C41.5389 150.556 41.609 150.444 41.648 150.317C41.6869 150.186 41.6986 150.032 41.6908 149.859L41.6947 149.855Z" fill="#D0D5DD"/>
<path d="M40.7446 150.59C40.6317 150.521 40.5655 150.394 40.5538 150.255C40.5421 150.113 40.5966 149.963 40.7057 149.859C40.8148 149.743 40.99 149.701 41.1263 149.724C41.2627 149.747 41.3795 149.812 41.4535 149.92C41.325 149.943 41.2198 149.955 41.1302 149.982C41.0407 150.009 40.9861 150.044 40.9433 150.09C40.8927 150.14 40.8459 150.201 40.8148 150.282C40.7797 150.363 40.7602 150.463 40.7446 150.59Z" fill="#D0D5DD"/>
<path d="M47.0153 157.843C46.9336 158.001 46.7778 158.12 46.5908 158.17C46.4038 158.224 46.1896 158.197 46.0144 158.093C45.8274 157.989 45.7145 157.785 45.6911 157.6C45.6677 157.415 45.7028 157.234 45.7963 157.084C45.843 157.253 45.8819 157.408 45.9443 157.535C46.0066 157.662 46.0806 157.754 46.1857 157.812C46.2909 157.874 46.4194 157.912 46.5558 157.916C46.696 157.924 46.8479 157.893 47.0153 157.843Z" fill="#D0D5DD"/>
<path d="M46.0649 157.111C46.1078 156.988 46.2129 156.891 46.3454 156.845C46.4817 156.799 46.6414 156.818 46.7738 156.891C46.914 156.968 46.9997 157.126 47.0075 157.261C47.0192 157.396 46.9802 157.523 46.8945 157.623C46.84 157.504 46.8011 157.408 46.7543 157.33C46.7076 157.253 46.6609 157.207 46.6063 157.176C46.544 157.142 46.4739 157.111 46.3882 157.099C46.3025 157.084 46.1974 157.092 46.0688 157.107L46.0649 157.111Z" fill="#D0D5DD"/>
<path d="M49.6408 152.508C49.6603 152.686 49.6019 152.867 49.4772 153.017C49.3526 153.163 49.1579 153.263 48.9553 153.275C48.7411 153.294 48.5308 153.186 48.41 153.048C48.2854 152.905 48.2114 152.736 48.2036 152.562C48.336 152.678 48.4568 152.782 48.5814 152.851C48.706 152.924 48.819 152.955 48.9358 152.948C49.0605 152.94 49.1851 152.901 49.302 152.828C49.4227 152.755 49.5318 152.647 49.6408 152.512V152.508Z" fill="#D0D5DD"/>
<path d="M48.4374 152.435C48.4023 152.308 48.4374 152.173 48.5192 152.058C48.6048 151.946 48.749 151.869 48.9009 151.861C49.0605 151.846 49.2202 151.931 49.302 152.035C49.3877 152.143 49.4306 152.266 49.415 152.397C49.3059 152.327 49.2163 152.27 49.1306 152.231C49.045 152.193 48.9826 152.181 48.9203 152.189C48.8502 152.193 48.7723 152.212 48.6944 152.247C48.6126 152.285 48.5308 152.347 48.4335 152.431L48.4374 152.435Z" fill="#D0D5DD"/>
<path d="M39.4943 154.226C39.5138 154.403 39.4554 154.584 39.3307 154.735C39.2061 154.881 39.0114 154.981 38.8088 154.993C38.5946 155.012 38.3843 154.904 38.2636 154.765C38.1389 154.623 38.0649 154.457 38.0571 154.28C38.1896 154.396 38.3103 154.5 38.4349 154.569C38.5596 154.642 38.6725 154.673 38.7894 154.665C38.914 154.658 39.0386 154.619 39.1555 154.546C39.2762 154.473 39.3853 154.365 39.4943 154.23V154.226Z" fill="#D0D5DD"/>
<path d="M38.2909 154.153C38.2558 154.026 38.2909 153.891 38.3727 153.776C38.4584 153.664 38.6025 153.587 38.7544 153.579C38.9141 153.564 39.0737 153.649 39.1555 153.756C39.2412 153.864 39.2841 153.987 39.2685 154.118C39.1594 154.049 39.0698 153.991 38.9842 153.953C38.8985 153.914 38.8362 153.903 38.7738 153.91C38.7037 153.914 38.6258 153.934 38.5479 153.968C38.4661 154.007 38.3844 154.068 38.287 154.153H38.2909Z" fill="#D0D5DD"/>
<path d="M150.007 22.0722L150.044 19.605L151.696 21.4354L153.481 20.8859L152.605 22.4543L153.444 23.324L152.149 23.455L152.127 25.1179L150.699 23.9462L149.536 24.9032L149.669 23.495L147.976 22.7199L150.007 22.0722Z" fill="white"/>
<path d="M148.444 147.335L150.729 148.317L148.385 149.118L148.204 150.959L147.082 149.554L145.941 149.984L146.324 148.75L144.778 148.084L146.427 147.236L145.985 145.81L147.248 146.472L148.62 145.228L148.444 147.335Z" fill="white"/>
<path d="M34.675 152.222L32.4228 155.289L31.9849 151.545L29.2471 150.672L31.7494 149.463L31.4771 147.633L33.2251 148.608L34.7449 146.534L35.4882 149.256L37.8029 149.074L36.3788 150.73L37.8139 153.186L34.675 152.222Z" fill="white"/>
<path d="M136.867 124.446L138.199 127.073L139.52 124.559L142.044 124.988L140.701 122.346L142.574 120.581L139.925 120.676L139.395 118.107L137.993 120.767L134.467 120.501L136.546 122.626L134.618 124.086L136.867 124.446Z" fill="white"/>
<path d="M75.2572 22.0067L75.8975 20.9441L74.6978 21.0496L74.282 20.0671L73.638 21.137L72.5782 20.8786L73.2148 21.7883L72.4126 22.5562L73.6858 22.4434L74.3887 23.7424L74.6794 22.5307L75.6399 22.8764L75.2572 22.0067Z" fill="white"/>
<path d="M145.29 78.0824L145.066 77.3837L144.642 77.9514L144.043 77.7476L144.263 78.4463L143.733 78.8065L144.388 78.8866L144.418 79.538L144.867 78.9375L145.721 79.1413L145.294 78.5409L145.824 78.2571L145.29 78.0824Z" fill="white"/>
<path d="M154.843 118.853L155.395 118.365L154.699 118.216L154.64 117.59L154.085 118.081L153.536 117.75L153.731 118.373L153.143 118.667L153.879 118.824L154.044 119.679L154.423 119.046L154.902 119.41L154.843 118.853Z" fill="white"/>
<path d="M139.097 34.1097L139.645 33.6221L138.949 33.4729L138.891 32.847L138.339 33.3382L137.787 33.0071L137.982 33.6294L137.396 33.9241L138.132 34.0806L138.294 34.9357L138.677 34.3062L139.155 34.6664L139.097 34.1097Z" fill="white"/>
<path d="M41.5859 134.38L41.6153 133.652L41.0229 134.042L40.5261 133.649L40.4966 134.384L39.8784 134.544L40.4635 134.839L40.2685 135.461L40.8941 135.046L41.6301 135.523L41.435 134.813L42.0312 134.726L41.5859 134.38Z" fill="white"/>
<path d="M55.5217 15.3402L55.1426 14.7106L54.8593 15.3547L54.2263 15.2929L54.6054 15.9224L54.1748 16.3918L54.8298 16.3227L55.0065 16.9522L55.3045 16.2681L56.184 16.2754L55.6321 15.7841L56.0847 15.3875L55.5217 15.3402Z" fill="white"/>
<path d="M20.6214 113.926L21.6886 111.884L19.4733 112.212L18.5901 110.436L17.5192 112.488L15.5284 112.128L16.8053 113.744L15.4106 115.254L17.7511 114.905L19.201 117.234L19.6058 114.959L21.42 115.494L20.6214 113.926Z" fill="white"/>
<path d="M31.3114 73.934L32.8607 74.247L32.2351 72.8751L33.2471 71.9726L31.6868 71.656L31.558 70.3024L30.7263 71.4304L29.4678 70.8045L30.1302 72.2565L28.8569 73.6283L30.4393 73.4682L30.4209 74.7418L31.3114 73.934Z" fill="white"/>
<path d="M35.5293 29.3901C35.4078 29.2481 28.3424 26.0059 21.943 30.8347C16.0625 35.2742 14.0201 43.6182 14.8003 43.8184C15.757 44.0622 18.3771 40.0812 23.4076 37.8942C25.1924 37.1191 28.0296 37.8942 28.0296 37.8942L35.5293 29.3937V29.3901Z" fill="white"/>
<path opacity="0.1" d="M28.0296 37.8942C28.0296 37.8942 26.7968 37.5558 25.4463 37.5522C26.5539 35.256 28.6257 30.973 29.9726 28.2001C33.1373 28.2292 35.4557 29.3136 35.5256 29.3973L28.0296 37.8979V37.8942Z" fill="black"/>
<path d="M47.165 42.9673C47.2865 43.1092 49.3656 50.5326 43.5035 55.9837C38.1124 60.9945 29.4536 61.624 29.3836 60.8307C29.2953 59.8591 33.6965 57.9524 36.703 53.4037C37.7702 51.7917 37.4611 48.8951 37.4611 48.8951L47.1687 42.9709L47.165 42.9673Z" fill="white"/>
<path opacity="0.1" d="M47.4445 48.6181C44.4343 49.4841 39.8123 50.816 37.3726 51.5147C37.597 50.1792 37.4609 48.8874 37.4609 48.8874L47.1685 42.9632C47.2384 43.0433 47.9487 45.5068 47.4482 48.6144L47.4445 48.6181Z" fill="black"/>
<path d="M30.7158 52.0387L23.8159 43.9894C23.8159 43.9894 27.4149 34.4481 35.967 28.0364C40.2394 24.8414 45.2478 22.447 49.7336 20.8641C55.9233 18.6698 61.1046 18.033 61.9068 18.9682C62.7127 19.907 61.226 24.8523 58.0282 30.5363C55.7098 34.6483 52.5046 39.146 48.6149 42.7885C40.8208 50.0846 30.7121 52.035 30.7121 52.035L30.7158 52.0387Z" fill="#D0D5DD"/>
<path d="M47.4781 39.3498C44.8874 41.5222 41.0051 41.2057 38.8045 38.6439C36.6076 36.0821 36.9277 32.243 39.5184 30.0669C42.1091 27.8945 45.9914 28.2111 48.192 30.7729C50.3889 33.3347 50.0688 37.1737 47.4781 39.3498Z" fill="#98A2B3"/>
<path d="M47.817 38.7821C45.2263 40.9546 41.344 40.638 39.1434 38.0762C36.9465 35.5144 37.2666 31.6753 39.8573 29.4992C42.4479 27.3268 46.3303 27.6434 48.5309 30.2052C50.7278 32.767 50.4076 36.606 47.817 38.7821Z" fill="white"/>
<path d="M46.5987 37.3593C44.8029 38.8694 42.1092 38.6511 40.582 36.8753C39.0548 35.0995 39.2756 32.4358 41.0714 30.9257C42.8672 29.4155 45.5609 29.6339 47.0881 31.4097C48.6153 33.1854 48.3945 35.8491 46.5987 37.3593Z" fill="#EAECF0"/>
<path d="M46.5988 37.3593C46.1829 37.7087 45.7193 37.967 45.2335 38.1308L41.8038 37.8542C41.3512 37.614 40.9354 37.2829 40.5821 36.8753C40.3245 36.577 40.1184 36.2531 39.9639 35.9147L47.3679 36.5115C47.1581 36.8208 46.9005 37.1082 46.5988 37.3593Z" fill="#EAECF0"/>
<path d="M47.4601 31.9119L40.6265 31.3587C40.7626 31.2059 40.9098 31.0604 41.0717 30.9221C42.8712 29.4119 45.5612 29.6303 47.0884 31.406C47.2246 31.5662 47.3497 31.7336 47.4564 31.9082L47.4601 31.9119Z" fill="#EAECF0"/>
<path d="M47.8316 35.6345L39.6585 34.9758C39.6327 34.8521 39.6143 34.7284 39.5996 34.601L47.953 35.2742C47.9199 35.3943 47.8794 35.5144 47.8353 35.6345H47.8316Z" fill="#EAECF0"/>
<path d="M58.0319 30.54L49.7373 20.8641C55.9269 18.6698 61.1083 18.033 61.9105 18.9682C62.7164 19.907 61.2297 24.8523 58.0319 30.5363V30.54Z" fill="white"/>
<path d="M52.1732 21.6865C52.0223 21.8139 51.7942 21.7957 51.6654 21.6465C51.5366 21.4973 51.555 21.2717 51.7059 21.1443C51.8567 21.0169 52.0849 21.0351 52.2137 21.1843C52.3425 21.3335 52.3241 21.5591 52.1732 21.6865Z" fill="#EAECF0"/>
<path d="M53.6488 23.4077C53.4979 23.535 53.2698 23.5168 53.141 23.3677C53.0122 23.2185 53.0306 22.9928 53.1815 22.8655C53.3323 22.7381 53.5605 22.7563 53.6893 22.9055C53.8181 23.0547 53.7997 23.2803 53.6488 23.4077Z" fill="#EAECF0"/>
<path d="M55.1244 25.1253C54.9735 25.2526 54.7454 25.2344 54.6166 25.0852C54.4878 24.936 54.5062 24.7104 54.657 24.5831C54.8079 24.4557 55.0361 24.4739 55.1649 24.6231C55.2937 24.7723 55.2753 24.9979 55.1244 25.1253Z" fill="#EAECF0"/>
<path d="M56.6 26.8465C56.4491 26.9738 56.2209 26.9556 56.0921 26.8064C55.9633 26.6572 55.9817 26.4316 56.1326 26.3043C56.2835 26.1769 56.5117 26.1951 56.6405 26.3443C56.7693 26.4935 56.7509 26.7191 56.6 26.8465Z" fill="#EAECF0"/>
<path d="M58.0761 28.5677C57.9252 28.6951 57.697 28.6769 57.5682 28.5277C57.4394 28.3785 57.4578 28.1529 57.6087 28.0255C57.7596 27.8982 57.9877 27.9163 58.1165 28.0655C58.2453 28.2147 58.2269 28.4404 58.0761 28.5677Z" fill="#EAECF0"/>
<path d="M25.807 43.8038C25.6561 43.9312 25.428 43.913 25.2992 43.7638C25.1704 43.6146 25.1888 43.389 25.3397 43.2616C25.4905 43.1342 25.7187 43.1524 25.8475 43.3016C25.9763 43.4508 25.9579 43.6764 25.807 43.8038Z" fill="#98A2B3"/>
<path d="M27.2826 45.525C27.1317 45.6524 26.9036 45.6342 26.7748 45.485C26.646 45.3358 26.6644 45.1102 26.8152 44.9828C26.9661 44.8554 27.1943 44.8736 27.3231 45.0228C27.4519 45.172 27.4335 45.3976 27.2826 45.525Z" fill="#98A2B3"/>
<path d="M28.7582 47.2462C28.6073 47.3735 28.3791 47.3553 28.2503 47.2062C28.1216 47.057 28.14 46.8313 28.2908 46.704C28.4417 46.5766 28.6699 46.5948 28.7987 46.744C28.9275 46.8932 28.9091 47.1188 28.7582 47.2462Z" fill="#98A2B3"/>
<path d="M30.2338 48.9674C30.0829 49.0948 29.8547 49.0766 29.7259 48.9274C29.5971 48.7782 29.6155 48.5526 29.7664 48.4252C29.9173 48.2979 30.1454 48.3161 30.2742 48.4653C30.403 48.6145 30.3846 48.8401 30.2338 48.9674Z" fill="#98A2B3"/>
<path d="M31.7098 50.6886C31.559 50.816 31.3308 50.7978 31.202 50.6486C31.0732 50.4994 31.0916 50.2738 31.2425 50.1464C31.3934 50.0191 31.6215 50.0373 31.7503 50.1865C31.8791 50.3357 31.8607 50.5613 31.7098 50.6886Z" fill="#98A2B3"/>
<path opacity="0.2" d="M61.5211 18.7323C56.7446 19.0671 48.4721 21.9309 39.7654 28.6848C33.3329 33.6737 28.6373 42.3999 26.4515 47.0613L23.8203 43.9901C23.8203 43.9901 27.4193 34.4488 35.9714 28.0407C40.2438 24.8421 45.2522 22.4513 49.738 20.8684C55.2873 18.8997 60.0197 18.1865 61.5211 18.7323Z" fill="#EAECF0"/>
<path d="M27.6358 53.3487L22.0239 46.8059L24.2061 44.4479L30.3442 51.6056L27.6358 53.3487Z" fill="white"/>
<path opacity="0.1" d="M30.3441 51.6056L29.023 52.4535L23.3706 45.3503L24.2059 44.4479L30.3441 51.6056Z" fill="black"/>
<path opacity="0.6" d="M26.3991 51.8895C23.7974 53.6253 21.5012 55.8377 19.8268 58.4796C18.1488 61.1105 17.1073 64.1781 17.0117 67.3513C16.9712 68.9342 17.1625 70.5353 17.5968 72.0855C18.0273 73.6393 18.7007 75.1386 19.5839 76.5359C20.4634 77.9296 21.549 79.2178 22.7818 80.364C24.0146 81.5139 25.3908 82.5292 26.8555 83.4171C25.2989 82.7039 23.7938 81.8451 22.3991 80.8189C21.0044 79.7927 19.7164 78.5919 18.6124 77.22C17.5048 75.8518 16.5811 74.3162 15.904 72.6604C15.2232 71.0047 14.789 69.2362 14.6234 67.4313C14.2996 63.8142 15.0723 60.0989 16.6731 56.7838C18.2702 53.4579 20.6658 50.5285 23.492 48.1305L26.4028 51.8895H26.3991Z" fill="white"/>
<path d="M21.9538 55.8341L20.9308 56.0197L20.6989 57.0895L20.4708 56.0197L19.4478 55.8341L20.4671 55.5867L20.6989 54.5787L20.9344 55.5867L21.9538 55.8341Z" fill="#EAECF0"/>
<path d="M18.186 75.8118L17.6156 75.9173L17.4868 76.5141L17.358 75.9173L16.7876 75.8118L17.358 75.6735L17.4868 75.1094L17.6156 75.6735L18.186 75.8118Z" fill="#EAECF0"/>
<path d="M17.8801 70.6372L17.306 70.7391L17.1809 71.3359L17.0521 70.7391L16.478 70.6372L17.0484 70.4989L17.1809 69.9349L17.3097 70.4989L17.8801 70.6372Z" fill="#EAECF0"/>
<path d="M21.1957 52.5081L20.6253 52.6137L20.4965 53.2104L20.3678 52.6137L19.7974 52.5081L20.3678 52.3698L20.4965 51.8094L20.6253 52.3698L21.1957 52.5081Z" fill="#EAECF0"/>
<path d="M19.54 77.0999C19.3265 77.0999 19.3265 77.4274 19.54 77.4274C19.7534 77.4274 19.7534 77.0999 19.54 77.0999Z" fill="#EAECF0"/>
<path d="M24.2724 51.7112C24.0589 51.7112 24.0589 52.0387 24.2724 52.0387C24.4858 52.0387 24.4858 51.7112 24.2724 51.7112Z" fill="#EAECF0"/>
<path d="M15.3451 66.3323C15.1317 66.3323 15.1317 66.6598 15.3451 66.6598C15.5586 66.6598 15.5586 66.3323 15.3451 66.3323Z" fill="#EAECF0"/>
<path d="M19.2455 76.2484C19.0946 76.2484 19.0946 76.4813 19.2455 76.4813C19.3964 76.4813 19.3964 76.2484 19.2455 76.2484Z" fill="#EAECF0"/>
<path d="M15.286 60.6047C15.1351 60.6047 15.1351 60.8376 15.286 60.8376C15.4369 60.8376 15.4369 60.6047 15.286 60.6047Z" fill="#EAECF0"/>
<path d="M16.4782 72.4676C16.0698 72.4676 16.0698 73.0971 16.4782 73.0971C16.8867 73.0971 16.8867 72.4676 16.4782 72.4676Z" fill="#EAECF0"/>
<path d="M16.7873 59.5349C16.3788 59.5349 16.3788 60.1644 16.7873 60.1644C17.1958 60.1644 17.1958 59.5349 16.7873 59.5349Z" fill="#EAECF0"/>
<path d="M115.85 121.007C115.85 121.007 117.808 131.167 112.226 136.043C106.643 140.923 100.682 142.207 88.1478 139.638C75.614 137.069 67.3709 133.798 62.3258 138.354C62.3258 138.354 61.3322 139.98 64.2761 143.234C67.2201 146.487 70.6645 153.968 63.5475 159.409C55.1499 165.828 42.3806 158.979 40.1285 146.742C37.8763 134.5 47.1608 119.486 66.0204 120.319C84.8763 121.153 90.5029 124.879 94.0541 124.984C97.6015 125.09 98.1425 122.033 98.1425 122.033L115.858 121.007H115.85Z" fill="#333F53"/>
<path d="M63.2787 142.08C56.6953 141.432 50.41 142.993 46.1707 148.281C44.8091 149.911 43.7383 151.752 42.7852 153.652C43.4733 151.636 44.4043 149.667 45.7144 147.935C49.7513 142.342 56.7063 140.541 63.275 142.084L63.2787 142.08Z" fill="#667085"/>
<path d="M65.4095 136.593C63.1795 130.516 57.9135 127.255 51.4442 127.524C49.4349 127.586 47.422 127.892 45.4238 128.321C47.3374 127.619 49.3503 127.12 51.4147 126.957C58.0165 126.32 63.9927 130.043 65.4095 136.593Z" fill="#667085"/>
<path d="M62.3259 138.357C56.5116 134.46 49.6964 134.769 43.7423 138.154C43.0063 138.623 41.8655 139.267 41.1884 139.806C40.7799 140.108 40.3641 140.406 39.9409 140.697C42.8297 137.783 46.5501 135.523 50.7121 134.944C54.8188 134.376 59.2716 135.559 62.3259 138.354V138.357Z" fill="#667085"/>
<path d="M68.6551 136.087C69.3028 130.93 68.2356 125.13 63.8749 121.804C63.2824 121.324 62.6384 120.913 61.9834 120.498C62.712 120.767 63.4186 121.102 64.0846 121.513C68.9605 124.457 70.3074 130.963 68.6551 136.087Z" fill="#667085"/>
<path d="M72.6958 136.363C75.4999 132.059 76.3168 127.237 73.7593 122.612C73.4686 121.986 73.0307 121.378 72.6958 120.774C73.1558 121.287 73.6931 121.844 74.0684 122.43C77.2479 126.818 76.4088 132.575 72.6958 136.363Z" fill="#667085"/>
<path d="M77.7849 137.324C79.9782 135.523 81.5311 132.935 82.2376 130.228C82.9663 127.459 82.3959 124.577 81.0858 122.037C82.9589 124.326 83.7022 127.524 82.9515 130.403C82.1935 133.219 80.4124 135.93 77.7812 137.328L77.7849 137.324Z" fill="#667085"/>
<path d="M84.1846 138.783C87.9712 135.978 90.2822 131.789 89.9105 127.062C89.8112 125.963 89.6198 124.992 89.399 123.915C89.664 124.57 89.9805 125.254 90.1387 125.945C91.6217 131.029 88.9758 136.523 84.1883 138.783H84.1846Z" fill="#667085"/>
<path d="M92.4756 140.41C93.517 139.511 93.9439 138.128 94.3818 136.873C95.5299 133.012 95.7949 128.718 94.0506 124.984C96.6081 128.412 96.3947 133.23 94.9191 137.062C94.3744 138.31 93.7304 139.729 92.4756 140.41Z" fill="#667085"/>
<path d="M101.41 140.814C102.275 135.912 101.326 129.908 97.9805 126.058C97.4874 125.494 96.9391 124.977 96.354 124.479C97.0274 124.843 97.6567 125.297 98.2381 125.807C102.102 129.282 103.258 136.09 101.41 140.814Z" fill="#667085"/>
<path d="M97.7485 123.049C104.439 124.733 109.977 130.938 109.771 137.928C108.774 130.981 104.104 125.861 97.7485 123.049Z" fill="#667085"/>
<path d="M98.1353 122.033C104.98 121 112.612 124.479 115.383 130.93C111.549 125.017 105.105 122.161 98.1353 122.033Z" fill="#667085"/>
<path opacity="0.1" d="M115.854 128.998C109.208 131.225 98.3965 134.726 96.5382 134.58C94.54 134.42 68.9277 130.683 67.6692 129.959C66.6388 129.362 59.4151 124.511 55.3193 121.753C58.4399 120.68 62.0094 120.145 66.0132 120.319C84.8691 121.149 90.4957 124.879 94.0469 124.984C97.5943 125.09 98.1353 122.033 98.1353 122.033L115.85 121.007C115.85 121.007 116.601 124.883 115.854 128.995V128.998Z" fill="black"/>
<path d="M61.3985 73.9704C61.3985 73.9704 58.7379 73.8431 57.8915 73.9704C57.0488 74.0978 55.6836 74.8038 55.6836 74.8038C55.6836 74.8038 52.1766 72.4275 48.9972 73.1335C45.8177 73.8394 41.0117 80.1311 40.4929 85.2656C39.974 90.4002 40.2978 102.918 43.2197 108.184C46.1416 113.449 66.1346 127.761 69.0564 129.045C71.9783 130.33 89.8333 132.706 96.7147 132.575C103.593 132.448 122.677 120.665 127.549 115.949C130.666 112.932 132.222 98.0383 132.289 95.0216C132.355 92.0049 127.81 82.2453 127.81 82.2453L61.3985 73.9632V73.9704Z" fill="#D0D5DD"/>
<path opacity="0.1" d="M132.289 95.0252C132.222 98.0455 130.666 112.936 127.549 115.949C122.677 120.669 103.592 132.451 96.711 132.579C89.8369 132.706 71.9783 130.334 69.0564 129.045C66.1346 127.765 46.1378 113.449 43.2197 108.187C41.5048 105.101 40.6879 99.5266 40.4082 94.403C40.8645 97.5652 44.6953 105.44 45.9428 107.125C47.2013 108.817 66.9368 123.209 70.9185 124.1C74.8965 124.992 94.297 126.589 98.0137 126.564C101.73 126.535 123.674 115.159 125.598 113.314C127.523 111.469 131.593 101.179 132.285 95.0252H132.289Z" fill="black"/>
<path d="M62.2853 72.9661C62.2853 72.9661 56.6587 64.149 56.92 60.128C57.1812 56.107 68.9496 42.8395 73.5385 39.3279C78.1274 35.82 88.858 33.935 92.4938 33.935C96.1296 33.935 106.492 37.8796 106.492 37.8796C106.492 37.8796 107.688 35.125 108.766 29.1426C109.271 26.3406 128.156 36.3331 127.291 52.8501C127.291 52.8501 131.707 68.9159 131.965 71.0665C132.226 73.2208 126.165 80.9207 126.165 80.9207C126.165 80.9207 120.767 83.1914 113.241 84.6797C105.473 86.2154 96.5859 87.2525 85.2223 84.7707C68.5596 81.1282 62.2853 72.9588 62.2853 72.9588V72.9661Z" fill="white"/>
<path d="M67.1463 45.4959C67.2199 41.6386 63.9742 32.181 63.1499 30.9402C62.3293 29.6993 74.1161 27.1229 85.6416 34.8083L67.1463 45.4959Z" fill="white"/>
<path opacity="0.1" d="M69.3616 44.2149C69.3616 44.2149 68.5704 36.384 65.7148 32.6941C65.2364 32.0791 73.8953 32.3557 81.3287 37.5011C81.3287 37.5011 78.4142 39.0331 76.3866 40.1575C76.3866 40.1575 74.8594 39.4188 73.6855 39.3643C72.5116 39.3097 70.6348 39.9283 70.6348 39.9283C70.6348 39.9283 72.8575 40.3722 73.4279 40.7434C73.9983 41.1146 74.3626 41.7004 74.3626 41.7004C74.3626 41.7004 73.3985 41.2056 72.9311 41.1437C72.4638 41.0818 71.7131 41.3329 71.7131 41.3329C71.7131 41.3329 72.7766 41.3839 73.3101 42.1298C73.3101 42.1298 70.2264 43.7128 69.3616 44.2149Z" fill="black"/>
<path opacity="0.1" d="M108.008 38.9058C108.008 38.9058 109.455 34.1352 109.859 30.9475C109.955 30.176 120.343 36.1475 119.92 46.9333C119.92 46.9333 115.975 43.7237 113.962 42.5666C113.962 42.5666 114.058 40.416 113.51 39.3898C112.958 38.3636 111.464 37.0791 111.464 37.0791C111.464 37.0791 112.211 39.1969 112.178 39.8701C112.145 40.5433 111.821 41.1547 111.821 41.1547C111.821 41.1547 111.762 40.0812 111.578 39.6554C111.394 39.226 110.794 38.7166 110.794 38.7166C110.794 38.7166 111.291 39.6481 110.912 40.4815C110.912 40.4815 109.745 39.408 108.008 38.9094V38.9058Z" fill="black"/>
<path opacity="0.1" d="M126.162 80.9244C126.162 80.9244 120.767 83.1951 113.238 84.6834C105.469 86.219 96.5825 87.2561 85.2189 84.7707C69.075 81.241 62.683 73.4646 62.3003 72.9843C63.6987 74.4289 73.9509 80.3785 76.4827 81.2082C79.0292 82.0415 93.3 84.163 99.3424 83.3879C105.385 82.6201 121.547 78.7046 122.651 77.8713C123.755 77.0344 126.412 70.4407 126.868 68.6358C127.328 66.8272 125.146 52.3043 125.146 52.3043C125.146 52.3043 127.626 38.8985 112.94 29.7903C118.592 32.7087 127.895 41.1364 127.28 52.8428C127.28 52.8428 131.696 68.9087 131.954 71.0629C132.215 73.2135 126.154 80.9207 126.154 80.9207L126.162 80.9244Z" fill="black"/>
<path d="M72.8982 51.6165C69.8365 50.8706 67.5439 53.5197 66.6644 57.0531C65.9505 59.9133 67.0434 63.2756 69.98 63.9925C72.9203 64.7094 75.5919 61.7182 76.2616 59.0327C76.9314 56.3471 76.2248 52.428 72.8982 51.6202V51.6165Z" fill="#667085"/>
<path d="M73.0086 52.428C70.1309 51.7257 67.9745 54.2183 67.1502 57.537C66.4804 60.2262 67.5071 63.3884 70.2671 64.0616C73.0307 64.7348 75.5404 61.9219 76.1697 59.3965C76.7989 56.8711 76.1329 53.1885 73.0086 52.428Z" fill="#EAECF0"/>
<path d="M73.5054 53.8145C71.2533 53.265 69.5642 55.2154 68.9165 57.8136C68.394 59.9169 69.1962 62.395 71.3563 62.919C73.5201 63.4467 75.4852 61.2451 75.9783 59.2692C76.4714 57.2933 75.9526 54.4112 73.5054 53.8145Z" fill="#667085"/>
<path d="M96.1998 56.3144C100.296 56.1142 102.515 59.12 102.699 62.7553C102.846 65.6992 100.564 68.8213 96.634 69.0142C92.7002 69.2071 90.0911 65.7974 89.9549 63.0318C89.8188 60.2662 91.7544 56.5327 96.2034 56.3144H96.1998Z" fill="#667085"/>
<path d="M95.8426 57.0931C99.6955 56.9039 101.778 59.7313 101.951 63.1482C102.091 65.9138 99.9458 68.8504 96.2511 69.0324C92.5528 69.2143 90.102 66.0084 89.9732 63.4102C89.8444 60.8121 91.6659 57.3005 95.8463 57.0967L95.8426 57.0931Z" fill="#EAECF0"/>
<path d="M96.0195 57.7881C99.1622 57.6353 100.866 59.9424 101.006 62.7298C101.12 64.9895 99.3683 67.384 96.3507 67.5332C93.3332 67.6824 91.3313 65.0623 91.2246 62.9445C91.1179 60.823 92.6046 57.9555 96.0195 57.7881Z" fill="#667085"/>
<path d="M83.1028 61.5908C83.0034 61.9693 80.4827 63.0755 80.2141 63.0427C79.9491 63.0063 77.7743 61.2706 77.7632 60.8812C77.7522 60.4955 79.9417 60.6411 80.4974 60.7138C81.0568 60.7866 83.2058 61.2196 83.1028 61.5908Z" fill="#667085"/>
<path d="M75.6582 63.3739C75.9636 63.967 76.2764 64.5565 76.6407 65.1023C76.8247 65.3716 77.0124 65.6409 77.2369 65.841C77.3436 65.9393 77.4724 66.0121 77.5423 66.0157C77.6159 66.0157 77.7558 65.983 77.8625 65.9138C78.0943 65.7792 78.2967 65.5354 78.4881 65.2916C78.6757 65.0405 78.845 64.7676 78.9996 64.4874C79.3087 63.927 79.592 63.3265 79.8202 62.7298L80.2471 61.6235L80.4863 62.7844C80.6445 63.5485 80.8727 64.3273 81.1597 65.0514C81.3032 65.4153 81.4725 65.7683 81.6749 66.0848C81.8846 66.3942 82.1238 66.6889 82.4182 66.8054L82.5286 66.8417L82.6427 66.8599C82.7273 66.8636 82.8157 66.8599 82.904 66.8527C83.0806 66.8308 83.2609 66.7835 83.4376 66.7144C83.7945 66.5761 84.1294 66.3614 84.4532 66.1249C85.0935 65.6445 85.675 65.0696 86.2159 64.4583C85.7854 65.1533 85.2702 65.801 84.6593 66.3687C84.3502 66.6525 84.008 66.9072 83.6179 67.1037C83.2241 67.2893 82.7715 67.4458 82.2489 67.293C81.7595 67.1256 81.4394 66.769 81.1855 66.4196C80.9315 66.063 80.7365 65.6846 80.5635 65.2988C80.225 64.5238 79.9932 63.7341 79.8092 62.9154L80.4752 62.9699C80.2139 63.6067 79.9269 64.2181 79.5663 64.8076C79.386 65.0987 79.1872 65.3862 78.9628 65.6591C78.7346 65.9284 78.4733 66.1904 78.109 66.3723C77.9214 66.4597 77.7263 66.5215 77.4614 66.4851C77.2001 66.4233 77.0566 66.2704 76.9278 66.1394C76.6849 65.8592 76.5156 65.5608 76.3611 65.2588C76.063 64.6475 75.8348 64.0179 75.6582 63.3739Z" fill="#667085"/>
<path d="M65.2551 58.8507C63.5587 58.5378 61.8549 58.283 60.1437 58.0647C58.4362 57.85 56.7251 57.6535 55.0065 57.5371C54.1491 57.457 53.288 57.4097 52.4306 57.3551C51.5695 57.3151 50.7121 57.2751 49.851 57.2532C48.1288 57.1877 46.4065 57.2096 44.6807 57.2168C45.5418 57.1477 46.4029 57.0749 47.264 57.0385C48.1288 57.0094 48.9899 56.9803 49.8546 56.9876C51.5842 56.9803 53.3101 57.0713 55.036 57.195C56.7582 57.3406 58.4767 57.5334 60.1842 57.8063C61.0379 57.9446 61.888 58.0938 62.7344 58.2612C63.5771 58.4431 64.4235 58.6215 65.2551 58.8543V58.8507Z" fill="#667085"/>
<path d="M64.4493 59.7604C63.6729 59.7131 62.8964 59.6658 62.1199 59.6367C61.3435 59.5967 60.567 59.5675 59.7905 59.5457C58.2376 59.4984 56.6847 59.462 55.1318 59.4766C54.3553 59.4657 53.5788 59.4802 52.8024 59.4911L50.473 59.5639L49.3101 59.6076L48.1473 59.6767C47.3708 59.7022 46.598 59.7895 45.8179 59.8259C47.3561 59.5857 48.9053 59.4002 50.4583 59.2983C52.0112 59.1855 53.5715 59.1454 55.1281 59.1345C56.6847 59.1491 58.245 59.1782 59.7979 59.2837C61.3508 59.3856 62.9038 59.5239 64.442 59.7604H64.4493Z" fill="#667085"/>
<path d="M64.7843 60.7648C64.1366 60.8048 63.4889 60.8412 62.8449 60.8921C62.1973 60.9358 61.5533 60.9831 60.9093 61.0413C59.6213 61.1578 58.3297 61.2706 57.0454 61.4125C55.7574 61.5508 54.4731 61.7036 53.1888 61.8674C51.9045 62.0275 50.6239 62.2203 49.3359 62.3877C49.9652 62.2349 50.5982 62.093 51.2348 61.9583C51.8714 61.8383 52.508 61.7109 53.1483 61.6054C54.4253 61.3798 55.7169 61.216 57.0049 61.0704C58.2966 60.9358 59.5919 60.8303 60.8872 60.7757C62.1826 60.7211 63.4852 60.6956 64.7806 60.7611L64.7843 60.7648Z" fill="#667085"/>
<path d="M104.097 67.5914C105.168 67.6023 106.239 67.6787 107.306 67.7479C108.373 67.8389 109.44 67.9444 110.504 68.0717C112.631 68.3265 114.75 68.6722 116.855 69.0761C118.956 69.5018 121.047 69.9713 123.111 70.5535C124.145 70.8337 125.168 71.1503 126.188 71.4705C126.699 71.627 127.203 71.8089 127.707 71.9872L129.22 72.5258C127.166 71.9217 125.12 71.3104 123.041 70.8082C122.007 70.5426 120.966 70.3024 119.924 70.0586C118.879 69.8366 117.838 69.6001 116.785 69.4109C114.691 68.9778 112.583 68.6394 110.467 68.3301C108.351 68.0244 106.228 67.7661 104.093 67.5878L104.097 67.5914Z" fill="#667085"/>
<path d="M104.745 68.9451C106.658 69.1962 108.557 69.5564 110.445 69.9603C112.333 70.3643 114.206 70.8482 116.068 71.354C117.922 71.8853 119.77 72.4566 121.588 73.1044C123.409 73.7375 125.198 74.4689 126.957 75.255C126.044 74.942 125.153 74.5745 124.237 74.2797L122.876 73.803L121.503 73.3554C120.59 73.0534 119.667 72.7732 118.75 72.4857C117.827 72.2165 116.907 71.9363 115.976 71.6888C114.125 71.1539 112.259 70.6772 110.39 70.2187C109.455 69.9894 108.517 69.7675 107.574 69.56C106.636 69.3417 105.694 69.1416 104.748 68.9451H104.745Z" fill="#667085"/>
<path d="M104.001 70.0367C105.569 70.4079 107.107 70.881 108.634 71.3868C110.161 71.8962 111.667 72.4603 113.164 73.0461C114.651 73.6611 116.134 74.2761 117.588 74.9675C118.316 75.3059 119.037 75.6625 119.755 76.0191C120.469 76.3867 121.179 76.7615 121.882 77.1472C120.41 76.5031 118.953 75.8335 117.473 75.2076C116.001 74.5708 114.522 73.9522 113.028 73.3664C111.545 72.755 110.04 72.1983 108.539 71.6379C107.788 71.354 107.033 71.0884 106.275 70.8228C105.521 70.5498 104.759 70.2951 103.998 70.0404L104.001 70.0367Z" fill="#667085"/>
<path d="M70.2266 47.5737C71.4483 46.009 73.8918 45.5323 75.6692 46.3838C73.7556 46.5875 72.0555 46.8787 70.2266 47.5737Z" fill="#667085"/>
<path d="M103.784 53.3159C102.282 52.0677 100.774 51.2454 99.0293 50.4375C100.991 50.2083 103.147 51.4419 103.784 53.3159Z" fill="#667085"/>
<path d="M82.1754 79.1777C81.4063 78.1224 80.7145 76.9761 80.3428 75.7716C80.3133 75.677 80.1625 75.677 80.1294 75.7753C80.0374 76.0446 79.7798 76.7978 79.743 76.9143C79.7135 76.8415 79.6878 76.7687 79.662 76.6959C79.5774 76.4485 79.5038 76.1974 79.4412 75.9427C79.3161 75.4332 79.2315 74.9129 79.1947 74.3889C79.1579 73.8685 79.1615 73.3408 79.2131 72.8168C79.2646 72.2892 79.3823 71.7725 79.478 71.2485C79.4817 71.2266 79.4412 71.2157 79.4302 71.2375C79.1873 71.7434 79.0511 72.2928 78.9555 72.8241C78.8598 73.3481 78.8193 73.8794 78.823 74.407C78.8267 74.942 78.8855 75.4733 78.9959 75.9973C79.0548 76.2665 79.1247 76.5358 79.2094 76.8015C79.2903 77.0562 79.3676 77.3255 79.5406 77.5474C79.6546 77.693 79.8828 77.562 79.9012 77.4164C79.9122 77.3291 80.1993 76.2811 80.2434 76.1283C80.4201 76.6413 80.6188 77.1435 80.8985 77.6275C81.226 78.1915 81.6197 78.7337 82.0908 79.225C82.1349 79.2686 82.2122 79.2141 82.1791 79.1704L82.1754 79.1777Z" fill="#667085"/>
<path d="M129.216 83.5335C118.419 88.3187 97.7527 91.6228 82.1866 87.449C66.6205 83.2788 59.1282 74.6109 58.8669 73.5884C58.6093 72.5658 59.5146 71.4014 60.6443 71.0666H60.648C61.1706 71.718 61.7225 72.3511 62.2893 72.9625C67.3528 78.399 77.3549 84.6106 93.3956 86.0735C109.16 87.5145 124.373 81.7032 128.204 80.1311C129.694 80.0038 131.255 82.6347 129.223 83.5335H129.216Z" fill="#667085"/>
<path d="M91.3604 122.765C95.5996 124.431 100.222 124.883 104.674 123.849C100.509 125.901 95.1617 125.385 91.3604 122.765Z" fill="#667085"/>
<path d="M101.406 100.585C102.448 98.0491 104.221 95.4619 106.867 94.2938C110.404 93.1985 115.202 94.8105 118.525 96.1169C120.608 96.972 122.621 98.0237 124.432 99.3446C120.516 97.2631 116.277 95.7057 111.909 94.8978C110.198 94.6358 108.354 94.3629 106.731 95.0361C104.38 96.2006 102.683 98.3512 101.406 100.589V100.585Z" fill="#667085"/>
<path d="M118.385 96.3497C119.982 95.9458 121.741 96.3024 123.173 97.0739C121.568 96.7828 120.023 96.4553 118.385 96.3497Z" fill="#667085"/>
<path d="M104.862 98.8206C108.766 101.43 110.415 102.765 110.142 107.128C109.907 110.92 99.4301 123.008 92.6995 125.101C91.36 125.516 90.0794 125.352 89.1558 124.85L104.862 98.8242V98.8206Z" fill="#D0D5DD"/>
<path d="M99.0219 97.8126C94.4072 99.0316 84.8836 116.135 85.4724 120.272C85.9434 123.569 88.2802 125.374 91.202 124.915C94.6869 124.369 108.682 108.828 108.689 105.138C108.7 101.029 103.979 96.5026 99.0182 97.8126H99.0219Z" fill="#475467"/>
<path d="M108.693 105.123L98.2271 98.1546C98.5067 97.9945 98.7717 97.8817 99.0256 97.8125C99.1323 97.7834 99.2427 97.758 99.3494 97.7361C99.4414 97.7143 99.5297 97.6961 99.6181 97.6852L108.483 103.58C108.509 103.675 108.531 103.766 108.549 103.86C108.645 104.279 108.693 104.701 108.693 105.119V105.123Z" fill="#667085"/>
<path d="M108.549 103.864L99.3457 97.7362C99.4377 97.7143 99.526 97.6961 99.6143 97.6852C99.71 97.667 99.8094 97.6525 99.9014 97.6415L108.391 103.293C108.424 103.387 108.45 103.482 108.479 103.58C108.505 103.675 108.527 103.766 108.546 103.86L108.549 103.864Z" fill="#333F53"/>
<path d="M107.651 107.812C107.625 107.867 107.589 107.925 107.552 107.983C107.397 108.249 107.228 108.526 107.044 108.809L95.1689 100.906C95.3897 100.651 95.6069 100.407 95.824 100.178C95.8681 100.127 95.916 100.083 95.9601 100.032L107.655 107.812H107.651Z" fill="#667085"/>
<path d="M107.751 107.649C107.721 107.703 107.688 107.758 107.651 107.812C107.626 107.867 107.589 107.925 107.552 107.983L95.8203 100.178C95.8645 100.127 95.9123 100.083 95.9565 100.032C96.0043 99.985 96.0485 99.9377 96.0963 99.8904L107.751 107.645V107.649Z" fill="#333F53"/>
<path d="M105.432 111.124C105.392 111.175 105.355 111.226 105.314 111.28C105.123 111.535 104.928 111.79 104.726 112.048L92.7476 104.079C92.9316 103.81 93.1192 103.544 93.3069 103.285C93.3474 103.231 93.3805 103.184 93.421 103.129L105.432 111.124Z" fill="#667085"/>
<path d="M105.546 110.967C105.506 111.022 105.469 111.073 105.432 111.127C105.392 111.178 105.355 111.229 105.314 111.284L93.3066 103.289C93.3471 103.235 93.3802 103.187 93.4207 103.133C93.4575 103.078 93.4943 103.027 93.5311 102.973L105.546 110.967Z" fill="#333F53"/>
<path d="M102.937 114.25C102.897 114.304 102.86 114.351 102.812 114.402C102.606 114.653 102.393 114.901 102.179 115.145L90.5947 107.434C90.7603 107.157 90.9259 106.881 91.0952 106.608C91.132 106.553 91.1614 106.499 91.1982 106.44L102.937 114.25Z" fill="#667085"/>
<path d="M103.066 114.1C103.025 114.151 102.981 114.199 102.941 114.25C102.9 114.304 102.864 114.351 102.816 114.402L91.1025 106.608C91.1393 106.553 91.1688 106.499 91.2056 106.44C91.2424 106.39 91.2755 106.331 91.3123 106.273L103.073 114.097L103.066 114.1Z" fill="#333F53"/>
<path d="M100.288 117.274C100.24 117.321 100.196 117.368 100.152 117.419C99.9308 117.659 99.7026 117.899 99.4818 118.136L88.6592 110.931C88.8064 110.647 88.9573 110.36 89.1118 110.072C89.1412 110.018 89.1707 109.959 89.2038 109.905L100.284 117.277L100.288 117.274Z" fill="#667085"/>
<path d="M100.416 117.128C100.372 117.179 100.328 117.223 100.284 117.274C100.236 117.321 100.192 117.368 100.148 117.419L89.1079 110.072C89.1373 110.018 89.1668 109.959 89.1999 109.905C89.2257 109.85 89.2588 109.788 89.2919 109.73L100.413 117.132L100.416 117.128Z" fill="#333F53"/>
<path d="M97.4689 120.185C97.4211 120.232 97.3732 120.276 97.3254 120.323C97.0825 120.559 96.847 120.789 96.6115 121.011L86.9443 114.577C87.0658 114.279 87.1946 113.98 87.3344 113.671C87.3602 113.613 87.3896 113.551 87.4117 113.493L97.4689 120.185Z" fill="#667085"/>
<path d="M97.6125 120.046C97.5647 120.094 97.5168 120.137 97.469 120.185C97.4211 120.232 97.3733 120.276 97.3255 120.323L87.3345 113.671C87.3602 113.613 87.3897 113.551 87.4118 113.493C87.4375 113.438 87.467 113.376 87.4927 113.318L97.6088 120.05L97.6125 120.046Z" fill="#333F53"/>
<path d="M94.4294 122.943C94.3742 122.99 94.3226 123.03 94.2711 123.074C93.9878 123.3 93.7191 123.511 93.4615 123.7L85.6196 118.482C85.6895 118.172 85.7742 117.841 85.8772 117.492C85.8956 117.43 85.914 117.365 85.9398 117.299L94.4294 122.947V122.943Z" fill="#667085"/>
<path d="M94.5876 122.816C94.536 122.859 94.4845 122.899 94.433 122.943C94.3778 122.99 94.3263 123.03 94.2748 123.074L85.8809 117.492C85.8993 117.43 85.9177 117.365 85.9434 117.299C85.9581 117.237 85.9802 117.172 86.0023 117.106L94.5876 122.819V122.816Z" fill="#333F53"/>
<path d="M90.3006 124.984C90.1755 124.984 90.0541 124.984 89.9326 124.97C88.3024 124.85 86.9519 123.955 86.1607 122.459C86.1018 122.35 86.0466 122.233 85.9951 122.117L90.3006 124.981V124.984Z" fill="#667085"/>
<path d="M90.6354 124.977C90.5213 124.984 90.4073 124.984 90.3006 124.984C90.1754 124.984 90.054 124.984 89.9326 124.97L86.1606 122.459C86.1018 122.35 86.0466 122.233 85.995 122.117C85.9435 122.011 85.903 121.902 85.8589 121.793L90.6391 124.973L90.6354 124.977Z" fill="#333F53"/>
<path d="M105.547 99.2827C112.557 102.914 110.912 108.562 106.68 113.718C105.491 115.199 104.181 116.575 102.794 117.867C103.953 116.371 105.131 114.905 106.22 113.38C110.051 108.012 111.736 103.679 105.547 99.2864V99.2827Z" fill="#667085"/>
<path d="M104.825 115.283C104.807 116.269 104.354 117.252 103.567 117.863C103.942 116.942 104.314 116.135 104.825 115.283Z" fill="#667085"/>
<path d="M89.1558 124.85C91.9709 125.796 94.8044 124.209 97.1118 122.725C97.4613 122.51 97.7889 122.262 98.1385 122.037C96.9572 123.198 95.5809 124.173 94.0353 124.813C92.5119 125.436 90.6461 125.698 89.1558 124.853V124.85Z" fill="#667085"/>
<path d="M97.984 123.048C97.697 123.405 97.2922 123.627 96.8727 123.787C96.4495 123.936 95.9895 124.009 95.5405 123.915C95.7466 123.813 95.9527 123.74 96.1514 123.663C96.7512 123.449 97.3511 123.216 97.9877 123.048H97.984Z" fill="#667085"/>
<path d="M42.7891 104.137C47.3301 103.719 51.6577 102.045 55.1499 99.1263C52.3789 102.827 47.3779 104.767 42.7891 104.137Z" fill="#667085"/>
<path d="M43.7385 77.5329C46.9622 71.627 51.3192 71.5069 56.5484 75.1203C57.921 76.0846 59.1832 77.2127 60.2025 78.5263C58.9514 77.431 57.6192 76.4631 56.2208 75.6079C50.8666 72.3948 47.6761 72.3657 43.7349 77.5329H43.7385Z" fill="#667085"/>
<path d="M34.5312 76.0919C39.0097 74.6327 41.0852 74.1633 44.4082 77.0417C47.2969 79.5453 50.5536 95.138 48.1102 101.681C47.6244 102.984 46.7081 103.882 45.7403 104.301L34.5312 76.0919Z" fill="#D0D5DD"/>
<path d="M30.1523 80.0438C28.3049 84.3996 36.1579 102.314 39.8268 104.385C42.7523 106.033 45.6263 105.312 47.0468 102.743C48.7432 99.683 44.8756 79.2287 41.928 76.9653C38.6492 74.4435 32.1357 75.3678 30.1523 80.0474V80.0438Z" fill="#475467"/>
<path d="M41.9132 76.9544L29.9351 80.8771C29.9792 80.5642 30.0491 80.284 30.1485 80.0438C30.189 79.9419 30.2368 79.8437 30.2847 79.7454C30.3251 79.6581 30.3656 79.578 30.4098 79.5052L40.548 76.1793C40.64 76.2156 40.7283 76.2557 40.8129 76.2993C41.2067 76.4813 41.5747 76.6996 41.9095 76.958L41.9132 76.9544Z" fill="#667085"/>
<path d="M40.82 76.2957L30.2881 79.7418C30.3286 79.6544 30.369 79.5744 30.4132 79.5016C30.4574 79.4143 30.5052 79.3306 30.553 79.2505L40.268 76.0665C40.3637 76.0992 40.4557 76.1356 40.5514 76.1756C40.6434 76.212 40.7317 76.252 40.8163 76.2957H40.82Z" fill="#333F53"/>
<path d="M43.429 79.4142C43.4584 79.4688 43.4805 79.5307 43.5063 79.5925C43.624 79.8764 43.7418 80.1748 43.8559 80.495L30.2696 84.9454C30.1997 84.6179 30.1408 84.2976 30.0893 83.9883C30.0746 83.9228 30.0672 83.8573 30.0562 83.7955L43.4327 79.4106L43.429 79.4142Z" fill="#667085"/>
<path d="M43.3592 79.2359C43.385 79.2942 43.4071 79.3524 43.4328 79.4142C43.4623 79.4688 43.4843 79.5307 43.5101 79.5926L30.0894 83.992C30.0747 83.9265 30.0673 83.861 30.0563 83.7991C30.0489 83.7336 30.0342 83.6681 30.0269 83.6026L43.3592 79.2323V79.2359Z" fill="#333F53"/>
<path d="M44.7211 83.1769C44.7358 83.2388 44.7542 83.3007 44.7726 83.3662C44.8572 83.6682 44.9456 83.9811 45.0265 84.2941L31.3225 88.7845C31.2194 88.4752 31.1201 88.1659 31.0318 87.8639C31.0134 87.802 30.995 87.7438 30.9766 87.6783L44.7174 83.1769H44.7211Z" fill="#667085"/>
<path d="M44.662 82.9913C44.6804 83.0532 44.6988 83.1187 44.7209 83.1769C44.7356 83.2388 44.754 83.3006 44.7724 83.3661L31.0316 87.8638C31.0132 87.802 30.9948 87.7438 30.9764 87.6783C30.9543 87.62 30.9359 87.5545 30.9175 87.4963L44.662 82.9913Z" fill="#333F53"/>
<path d="M45.6927 87.0378C45.7111 87.0997 45.7258 87.1616 45.7369 87.2307C45.8104 87.5437 45.8767 87.8639 45.9466 88.1805L32.6915 92.5217C32.5701 92.2233 32.4523 91.9213 32.3346 91.6229C32.3125 91.5647 32.2867 91.5028 32.2646 91.4409L45.6927 87.0378Z" fill="#667085"/>
<path d="M45.652 86.8486C45.6668 86.9105 45.6815 86.9723 45.6925 87.0378C45.7109 87.0997 45.7256 87.1616 45.7367 87.2307L32.3344 91.6229C32.3123 91.5647 32.2866 91.5028 32.2645 91.4409C32.2424 91.3827 32.2203 91.3172 32.1982 91.2553L45.652 86.845V86.8486Z" fill="#333F53"/>
<path d="M46.4911 90.9605C46.4984 91.026 46.5132 91.0915 46.5242 91.1534C46.5794 91.4736 46.6346 91.7975 46.6861 92.1141L34.2995 96.1715C34.1633 95.8804 34.0235 95.5893 33.8873 95.2909C33.8616 95.2326 33.8321 95.1781 33.8101 95.1126L46.4874 90.9569L46.4911 90.9605Z" fill="#667085"/>
<path d="M46.4544 90.7713C46.4691 90.8368 46.4765 90.8987 46.4912 90.9606C46.4986 91.0261 46.5133 91.0916 46.5243 91.1534L33.8911 95.2909C33.8654 95.2327 33.8359 95.1781 33.8139 95.1126C33.7844 95.058 33.755 94.9961 33.7329 94.9343L46.4581 90.7677L46.4544 90.7713Z" fill="#333F53"/>
<path d="M47.0948 94.9451C47.1021 95.0106 47.1095 95.0761 47.1168 95.1416C47.1573 95.4764 47.1978 95.8039 47.2309 96.1205L36.1727 99.7449C36.0071 99.4683 35.8489 99.1808 35.687 98.8861C35.6539 98.8279 35.6244 98.7696 35.5913 98.715L47.0984 94.9451H47.0948Z" fill="#667085"/>
<path d="M47.0726 94.7487C47.08 94.8142 47.0874 94.8797 47.0947 94.9452C47.1021 95.0107 47.1094 95.0762 47.1168 95.1417L35.6833 98.8861C35.6502 98.8279 35.6207 98.7697 35.5876 98.7151C35.5582 98.6605 35.5287 98.6023 35.4956 98.544L47.069 94.7487H47.0726Z" fill="#333F53"/>
<path d="M47.4408 99.0099C47.4408 99.0827 47.4445 99.1482 47.4482 99.2137C47.4555 99.5703 47.4592 99.9123 47.4519 100.229L38.4802 103.169C38.2741 102.925 38.0607 102.656 37.8472 102.361C37.8068 102.307 37.77 102.256 37.7295 102.194L47.4408 99.0099Z" fill="#667085"/>
<path d="M47.437 98.8097C47.437 98.8752 47.4406 98.9407 47.4443 99.0099C47.4443 99.0826 47.448 99.1481 47.4517 99.2136L37.8507 102.361C37.8103 102.307 37.7735 102.256 37.733 102.194C37.6925 102.143 37.6557 102.088 37.6152 102.027L47.4406 98.8061L47.437 98.8097Z" fill="#333F53"/>
<path d="M46.5468 103.489C46.4695 103.588 46.3922 103.682 46.3113 103.77C45.2183 104.97 43.6764 105.48 41.9947 105.185C41.8733 105.163 41.7445 105.138 41.623 105.105L46.5505 103.489H46.5468Z" fill="#667085"/>
<path d="M46.7489 103.224C46.6863 103.318 46.6164 103.406 46.5501 103.493C46.4729 103.591 46.3956 103.686 46.3146 103.773L41.9981 105.189C41.8766 105.167 41.7479 105.141 41.6264 105.109C41.5123 105.083 41.3983 105.05 41.2842 105.018L46.7525 103.227L46.7489 103.224Z" fill="#333F53"/>
<path d="M57.5493 76.1756C58.5024 76.0665 59.5107 76.3903 60.2062 77.0526C59.2605 76.8343 58.4362 76.5686 57.5493 76.1756Z" fill="#667085"/>
<path d="M44.1841 76.8561C47.5659 79.0503 48.6294 86.9832 48.6773 90.7713C48.5117 90.1672 48.3792 89.5632 48.243 88.9591C47.8493 87.2088 47.4408 85.2765 46.9992 83.5517C46.7012 82.3654 46.37 81.1828 45.9541 80.0329C45.5236 78.8975 45.082 77.7221 44.1841 76.8561Z" fill="#667085"/>
<path d="M48.1401 87.1542C48.8835 87.8092 49.3472 88.7881 49.303 89.7779C48.843 88.8973 48.464 88.0931 48.1401 87.1542Z" fill="#667085"/>
<path d="M46.7485 103.751C48.4707 101.746 48.6474 99.0644 48.9712 96.5681C49.1846 99.0571 48.8755 102.092 46.7485 103.751Z" fill="#667085"/>
<path d="M49.648 97.3432C49.7364 97.7908 49.6444 98.2384 49.4898 98.6568C49.3279 99.068 49.085 99.4611 48.7207 99.7412C48.7759 99.5193 48.8532 99.3191 48.9231 99.119C49.1476 98.5295 49.361 97.9254 49.6444 97.3432H49.648Z" fill="#667085"/>
<path d="M59.43 80.9862C58.9737 84.0648 59.4742 96.8665 64.1624 97.7689C68.8506 98.6714 69.0052 91.8557 74.1019 86.9577C74.1019 86.9577 70.8341 83.1878 66.5838 81.5539C62.3335 79.9164 59.4337 80.9862 59.4337 80.9862H59.43Z" fill="#D0D5DD"/>
<path d="M71.5182 90.1054C71.301 90.4329 71.0986 90.764 70.9036 91.0915C67.5365 88.9628 64.5116 88.0749 62.4471 87.7146C61.2364 87.4999 60.2282 87.4417 59.4922 87.4381C59.4554 87.0414 59.4259 86.652 59.3965 86.27C61.6376 86.259 66.2043 86.7357 71.5182 90.1054Z" fill="white"/>
<path d="M72.7325 88.4388C72.4823 88.7481 72.2468 89.061 72.0186 89.374C66.3957 85.917 61.5713 85.4767 59.3449 85.4949C59.3229 85.091 59.3118 84.6979 59.3008 84.3268C61.7001 84.2904 66.7784 84.7489 72.7288 88.4388H72.7325Z" fill="white"/>
<path d="M59.3083 82.5182C59.6469 86.2918 60.1915 101.299 66.9405 96.5826C67.9267 95.7712 68.6185 94.6067 69.2956 93.4568C70.5983 91.1352 71.901 88.5989 74.0979 86.9541C73.1117 87.8856 72.3279 88.9919 71.6544 90.1454C69.9617 92.8273 68.9644 97.2013 65.4427 98.1001C59.1133 99.3737 59.1501 86.4846 59.3083 82.5146V82.5182Z" fill="#667085"/>
<path d="M72.0186 89.3776C72.6478 88.89 73.255 88.5115 73.9432 88.1149C73.5273 88.7844 72.7987 89.2393 72.0186 89.3776Z" fill="#667085"/>
<path d="M62.3257 92.9073C62.7968 94.5194 63.0838 97.1212 64.7655 97.9145C62.7784 97.5761 62.2632 94.5631 62.3257 92.9073Z" fill="#667085"/>
<path d="M64.7362 92.5179C64.9643 94.1809 64.8576 96.7937 66.4032 97.8271C64.4896 97.2049 64.4271 94.1482 64.7362 92.5179Z" fill="#667085"/>
<path d="M82.9075 88.9846C79.9672 90.0945 68.9127 96.7719 70.4031 101.259C71.8935 105.745 79.1503 102.518 86.0612 104.159C86.0612 104.159 86.5249 99.9014 85.8956 95.4328C85.2663 90.9642 82.9075 88.9846 82.9075 88.9846Z" fill="#D0D5DD"/>
<path d="M80.7695 103.642C80.3721 103.642 79.982 103.653 79.5956 103.664C79.8017 99.7922 79.1172 96.801 78.4438 94.8688C78.0427 93.7262 77.6011 92.8237 77.2441 92.1869C77.4097 92.0704 77.5753 91.9613 77.7373 91.8557C77.7741 91.8303 77.8072 91.8084 77.8403 91.7866C77.9691 91.7029 78.0979 91.6156 78.2267 91.5355C79.3159 93.4423 81.0897 97.5397 80.7658 103.646L80.7695 103.642Z" fill="white"/>
<path d="M82.8375 103.697C82.4437 103.671 82.05 103.657 81.6562 103.649C81.8918 97.2741 79.9745 93.0056 78.8853 91.117C78.9846 91.0515 79.0803 90.9897 79.1796 90.9351C79.3526 90.8259 79.5256 90.724 79.6912 90.6294C79.7611 90.5894 79.8273 90.5457 79.8936 90.5057C81.0748 92.5216 83.0877 96.9902 82.8375 103.697Z" fill="white"/>
<path d="M81.4946 89.6287C78.6353 91.5937 67.2606 98.2966 71.4631 102.259C72.9608 103.642 75.1393 103.573 77.1155 103.602C79.8717 103.558 82.6905 103.518 85.4174 104.017C82.6464 103.791 79.9048 103.984 77.1302 104.152C75.0805 104.228 72.6002 104.301 70.97 102.769C66.1014 97.9182 77.8588 91.4591 81.4982 89.6251L81.4946 89.6287Z" fill="#667085"/>
<path d="M82.6685 103.828C83.4449 104.006 84.1257 104.232 84.8727 104.512C84.0852 104.614 83.2683 104.341 82.6685 103.828Z" fill="#667085"/>
<path d="M73.7963 97.3032C72.604 98.4967 70.4476 100.014 70.5653 101.852C69.8956 99.9741 72.3023 98.0564 73.7963 97.3032Z" fill="#667085"/>
<path d="M75.3159 99.1918C73.958 100.2 71.5991 101.382 71.4409 103.22C71.0582 101.262 73.7261 99.7194 75.3159 99.1918Z" fill="#667085"/>
<path opacity="0.2" d="M62.2853 72.966C56.4821 66.7362 52.6329 57.9883 52.5041 49.8989C52.3753 41.8096 54.712 33.4656 59.9044 27.0465C65.0968 20.6275 81.0345 8.94292 104.744 13.5643C128.454 18.1858 140.399 36.0674 140.918 53.3159C141.33 67.0273 128.193 80.1347 128.193 80.1347C124.362 81.7067 109.149 87.5181 93.3843 86.0771C77.3472 84.6142 67.3415 78.4026 62.2779 72.966H62.2853Z" fill="#EAECF0"/>
<path d="M62.2852 72.9661C57.0045 67.2202 53.3982 59.8441 52.6033 52.086C51.9741 44.3423 53.7 36.3112 57.9061 29.7066C62.1417 23.0729 69.1078 18.5606 76.3573 15.6713C90.7347 10.0019 108.807 11.8577 121.852 20.038C133.621 27.3158 141.19 40.7107 141.061 54.4585C140.896 60.3499 138.496 65.9539 135.442 70.9283C133.367 74.247 130.989 77.3764 128.266 80.2039C122.842 82.4127 117.171 84.0429 111.409 85.1128C94.9887 88.326 74.2781 85.342 62.2815 72.9661H62.2852ZM62.2852 72.9661C74.3039 85.2947 94.9887 88.2241 111.383 84.9672C117.068 83.9229 122.912 82.158 128.126 80.062C129.481 78.661 130.735 77.1617 131.924 75.6152C136.572 69.4727 140.528 62.2713 140.778 54.4512C140.925 38.7857 130.879 23.9389 116.531 17.5017C100.527 10.1583 80.5303 10.9007 66.1234 21.4244C56.217 28.2183 51.7312 40.4451 52.6696 52.0787C53.4387 59.8259 57.0266 67.2093 62.2852 72.9624V72.9661Z" fill="#667085"/>
<g opacity="0.6">
<path d="M63.8159 35.2669C60.6732 38.4728 62.6604 47.6792 66.7157 47.399C70.035 47.1698 72.0368 43.5454 72.4416 41.1146C72.8464 38.6838 72.0405 35.3651 69.6449 34.3317C67.6209 33.4583 64.9677 34.0915 63.8159 35.2669Z" fill="#EAECF0"/>
<path d="M71.5217 29.3318C70.392 30.1724 71.1758 32.7342 72.5668 33.2182C73.9578 33.6985 75.4151 32.0501 75.1759 30.9693C74.9367 29.8885 72.5447 28.5749 71.5254 29.3318H71.5217Z" fill="#EAECF0"/>
<path d="M125.101 76.5831C126.187 76.7978 127.287 75.0075 126.845 73.9558C126.404 72.9042 125.083 73.2026 124.571 73.9049C124.06 74.6072 124.122 76.3903 125.101 76.5831Z" fill="#EAECF0"/>
</g>
</svg>
